<?xml version="1.0" encoding="utf-8"?>
<!-- Generator: Adobe Illustrator 22.1.0, SVG Export Plug-In . SVG Version: 6.00 Build 0)  -->
<svg version="1.1" id="Layer_1" xmlns="http://www.w3.org/2000/svg" xmlns:xlink="http://www.w3.org/1999/xlink" x="0px" y="0px"
	 viewBox="0 0 600 600" style="enable-background:new 0 0 600 600;" xml:space="preserve">
<style type="text/css">
	.st0{fill:url(#SVGID_1_);}
	.st1{fill:url(#SVGID_2_);}
	.st2{fill:url(#SVGID_3_);}
	.st3{fill:url(#SVGID_4_);}
	.st4{fill:url(#SVGID_5_);}
	.st5{fill:url(#SVGID_6_);}
	.st6{fill:url(#SVGID_7_);}
	.st7{fill:#F9C2C5;}
	.st8{fill:url(#SVGID_8_);}
	.st9{fill:url(#SVGID_9_);}
	.st10{fill:url(#SVGID_10_);}
	.st11{fill:url(#SVGID_11_);}
	.st12{fill:#D1CCEC;}
	.st13{fill:url(#SVGID_12_);}
	.st14{opacity:0.29;fill:url(#SVGID_13_);}
	.st15{fill:#FFFFFF;}
	.st16{fill:url(#SVGID_14_);}
	.st17{fill:url(#SVGID_15_);}
	.st18{fill:url(#SVGID_16_);}
	.st19{fill:url(#SVGID_17_);}
	.st20{fill:url(#SVGID_18_);}
	.st21{fill:url(#SVGID_19_);}
	.st22{fill:url(#SVGID_20_);}
	.st23{fill:url(#SVGID_21_);}
	.st24{fill:url(#SVGID_22_);}
	.st25{fill:#BEB7E1;}
	.st26{fill:url(#SVGID_23_);}
	.st27{fill:url(#SVGID_24_);}
	.st28{opacity:0.16;fill:#FFFFFF;}
</style>
<linearGradient id="SVGID_1_" gradientUnits="userSpaceOnUse" x1="449.0639" y1="626.8218" x2="274.0096" y2="264.141">
	<stop  offset="0" style="stop-color:#C8C0E9"/>
	<stop  offset="1" style="stop-color:#FAFAFA"/>
</linearGradient>
<path class="st0" d="M522.7,212c-5.3,46.7-38.3,122.5-98.5,186.4v0c-4.2,4.4-8.5,8.8-12.9,13.1c-10.6,10.3-22,20.2-34.1,29.5
	c-7.6,5.9-15.6,11.5-23.8,16.8c-35.5,23-76.4,40.7-122.8,49.2C65.9,537.2,54.2,446.8,99.5,383.7c49.8-69.4,18.6-86.5,2.2-96.9
	c-16.4-10.5-23.2-34.7-10.9-62.1c12.3-27.5,47.3-61.7,146.7-102.7C448.4,34.8,532.1,128.3,522.7,212z"/>
<g>
	<linearGradient id="SVGID_2_" gradientUnits="userSpaceOnUse" x1="302.3938" y1="549.2457" x2="580.5477" y2="-35.0049">
		<stop  offset="0" style="stop-color:#C8C0E9"/>
		<stop  offset="1" style="stop-color:#FAFAFA"/>
	</linearGradient>
	<path class="st1" d="M430,386.9c-1.3-2.9-2.8-5.6-4.5-8.2l-9.6,2.5c-2-2.6-4.3-5-6.8-7.1l2.9-9.4c-2.5-1.8-5.2-3.4-8-4.8l-7,7
		c-3-1.2-6.2-2.1-9.4-2.7l-2.2-9.6c-3.1-0.3-6.2-0.4-9.4-0.1l-2.6,9.5c-1.6,0.2-3.2,0.5-4.8,0.9c-1.6,0.4-3.2,0.9-4.7,1.4l-6.7-7.2
		c-2.9,1.3-5.6,2.8-8.2,4.5l2.5,9.6c-2.6,2-5,4.3-7.1,6.8l-9.4-2.9c-1.8,2.5-3.5,5.2-4.8,8l7,7c-1.2,3-2.2,6.1-2.7,9.4l-9.6,2.2
		c-0.3,3.1-0.4,6.2-0.2,9.4l9.5,2.6c0.2,1.6,0.5,3.2,0.9,4.8c0.4,1.6,0.9,3.2,1.4,4.7l-7.2,6.7c1.3,2.9,2.8,5.6,4.5,8.2l9.6-2.5
		c2,2.6,4.3,5,6.8,7.1l-2.9,9.4c1.9,1.4,4,2.7,6.1,3.8c8.2-5.3,16.2-11,23.8-16.8c-16.3-1.3-29.2-14.9-29.2-31.6
		c0-17.5,14.2-31.7,31.7-31.7c17.5,0,31.7,14.2,31.7,31.7c0,0.7,0,1.4-0.1,2.1c4.4-4.3,8.8-8.7,12.9-13.1v0
		c-0.4-1.6-0.9-3.2-1.4-4.7L430,386.9z"/>
	<linearGradient id="SVGID_3_" gradientUnits="userSpaceOnUse" x1="310.7963" y1="553.4137" x2="589.1504" y2="-31.2571">
		<stop  offset="0" style="stop-color:#C8C0E9"/>
		<stop  offset="1" style="stop-color:#FAFAFA"/>
	</linearGradient>
	<circle class="st2" cx="379.4" cy="409.4" r="14.6"/>
</g>
<g>
	<linearGradient id="SVGID_4_" gradientUnits="userSpaceOnUse" x1="313.6098" y1="494.1643" x2="525.4157" y2="49.2751">
		<stop  offset="0" style="stop-color:#C8C0E9"/>
		<stop  offset="1" style="stop-color:#FAFAFA"/>
	</linearGradient>
	<path class="st3" d="M421.7,317.6c0.1-1.3,0.2-2.6,0.1-3.9l-4-1.1c-0.1-0.7-0.2-1.3-0.4-2c-0.2-0.7-0.4-1.3-0.6-2l3-2.8
		c-0.5-1.2-1.2-2.4-1.9-3.4l-4,1.1c-0.8-1.1-1.8-2.1-2.8-2.9l1.2-3.9c-1.1-0.8-2.2-1.4-3.3-2l-2.9,2.9c-1.3-0.5-2.6-0.9-3.9-1.1
		l-0.9-4c-1.3-0.1-2.6-0.2-3.9-0.1l-1.1,4c-0.7,0.1-1.3,0.2-2,0.4c-0.7,0.2-1.3,0.4-2,0.6l-2.8-3c-1.2,0.5-2.4,1.2-3.4,1.9l1.1,4
		c-1.1,0.8-2.1,1.8-2.9,2.8l-3.9-1.2c-0.8,1.1-1.4,2.2-2,3.3l2.9,2.9c-0.5,1.3-0.9,2.6-1.1,3.9l-4,0.9c-0.1,1.3-0.2,2.6-0.1,3.9
		l4,1.1c0.1,0.7,0.2,1.3,0.4,2c0.2,0.7,0.4,1.3,0.6,2l-3,2.8c0.5,1.2,1.2,2.4,1.9,3.4l4-1.1c0.8,1.1,1.8,2.1,2.8,2.9l-1.2,3.9
		c1.1,0.8,2.2,1.4,3.3,2l2.9-2.9c1.3,0.5,2.6,0.9,3.9,1.1l0.9,4c1.3,0.1,2.6,0.2,3.9,0.1l1.1-4c0.7-0.1,1.3-0.2,2-0.4
		c0.7-0.2,1.3-0.4,2-0.6l2.8,3c1.2-0.5,2.4-1.2,3.4-1.9l-1.1-4c1.1-0.8,2.1-1.8,2.9-2.8l3.9,1.2c0.8-1.1,1.4-2.2,2-3.3l-2.9-2.9
		c0.5-1.3,0.9-2.6,1.1-3.9L421.7,317.6z M398.8,328.5c-7.3,0-13.2-5.9-13.2-13.2c0-7.3,5.9-13.2,13.2-13.2c7.3,0,13.2,5.9,13.2,13.2
		C412,322.5,406.1,328.5,398.8,328.5z"/>
	<linearGradient id="SVGID_5_" gradientUnits="userSpaceOnUse" x1="313.5062" y1="494.1162" x2="525.3121" y2="49.227">
		<stop  offset="0" style="stop-color:#C8C0E9"/>
		<stop  offset="1" style="stop-color:#FAFAFA"/>
	</linearGradient>
	<circle class="st4" cx="398.7" cy="315.2" r="6.1"/>
</g>
<g>
	<linearGradient id="SVGID_6_" gradientUnits="userSpaceOnUse" x1="136.0906" y1="409.6496" x2="347.8963" y2="-35.2393">
		<stop  offset="0" style="stop-color:#C8C0E9"/>
		<stop  offset="1" style="stop-color:#FAFAFA"/>
	</linearGradient>
	<path class="st5" d="M265.3,188.7c0.1-1.3,0.2-2.6,0.1-3.9l-4-1.1c-0.1-0.7-0.2-1.3-0.4-2c-0.2-0.7-0.4-1.3-0.6-2l3-2.8
		c-0.5-1.2-1.2-2.4-1.9-3.4l-4,1.1c-0.8-1.1-1.8-2.1-2.8-2.9l1.2-3.9c-1.1-0.8-2.2-1.4-3.3-2l-2.9,2.9c-1.3-0.5-2.6-0.9-3.9-1.1
		l-0.9-4c-1.3-0.1-2.6-0.2-3.9-0.1l-1.1,4c-0.7,0.1-1.3,0.2-2,0.4c-0.7,0.2-1.3,0.4-2,0.6l-2.8-3c-1.2,0.5-2.4,1.2-3.4,1.9l1.1,4
		c-1.1,0.8-2.1,1.8-2.9,2.8l-3.9-1.2c-0.8,1.1-1.4,2.2-2,3.3l2.9,2.9c-0.5,1.3-0.9,2.6-1.1,3.9l-4,0.9c-0.1,1.3-0.2,2.6-0.1,3.9
		l4,1.1c0.1,0.7,0.2,1.3,0.4,2c0.2,0.7,0.4,1.3,0.6,2l-3,2.8c0.5,1.2,1.2,2.4,1.9,3.4l4-1.1c0.8,1.1,1.8,2.1,2.8,2.9l-1.2,3.9
		c1.1,0.8,2.2,1.4,3.3,2l2.9-2.9c1.3,0.5,2.6,0.9,3.9,1.1l0.9,4c1.3,0.1,2.6,0.2,3.9,0.1l1.1-4c0.7-0.1,1.3-0.2,2-0.4
		c0.7-0.2,1.3-0.4,2-0.6l2.8,3c1.2-0.5,2.4-1.2,3.4-1.9l-1.1-4c1.1-0.8,2.1-1.8,2.9-2.8l3.9,1.2c0.8-1.1,1.4-2.2,2-3.3l-2.9-2.9
		c0.5-1.3,0.9-2.6,1.1-3.9L265.3,188.7z M242.4,199.6c-7.3,0-13.2-5.9-13.2-13.2c0-7.3,5.9-13.2,13.2-13.2c7.3,0,13.2,5.9,13.2,13.2
		C255.6,193.7,249.7,199.6,242.4,199.6z"/>
	<linearGradient id="SVGID_7_" gradientUnits="userSpaceOnUse" x1="135.9869" y1="409.6019" x2="347.7925" y2="-35.2868">
		<stop  offset="0" style="stop-color:#C8C0E9"/>
		<stop  offset="1" style="stop-color:#FAFAFA"/>
	</linearGradient>
	<circle class="st6" cx="242.3" cy="186.4" r="6.1"/>
</g>
<path class="st7" d="M426.1,171.7l-0.6-2.7c0,0-2.9-11-2.9-16c0-5,1.8-8.1,3.5-9.8s1-9,3.9-10.2c2.9-1.1,4.5,1.5,7.3,1.1
	c2.7-0.3,5.3-0.2,7.6,2.9c2.3,3.1,5.3,1.3,6.6,5.3c1.3,4,3.5,2.6,2.9,7.6c-0.6,5-8.5,24.3-8.5,24.3l-13.2,2.4L426.1,171.7z"/>
<path class="st7" d="M207.7,148.3l0.8-2.7c0,0,3.4-10.8,3.7-15.8c0.2-5-1.4-8.1-3.1-10c-1.7-1.9-0.5-9.1-3.4-10.3
	c-2.8-1.3-4.6,1.2-7.3,0.8c-2.7-0.5-5.3-0.4-7.7,2.5c-2.4,2.9-5.4,1-6.9,5c-1.5,4-3.7,2.4-3.3,7.4c0.4,5,7.3,24.7,7.3,24.7L201,153
	L207.7,148.3z"/>
<linearGradient id="SVGID_8_" gradientUnits="userSpaceOnUse" x1="260.1361" y1="234.207" x2="352.7669" y2="234.207">
	<stop  offset="0" style="stop-color:#A15BB1"/>
	<stop  offset="1" style="stop-color:#6C388D"/>
</linearGradient>
<path class="st8" d="M352.2,245.7c-2.3,8.7-6.3,13.7-14.2,19c-7.9,5.3-7.4,12.1-13.9,15.5c-6.5,3.4-14.4,2-22.6-2.4
	c-8.1-4.4-4.9-12.9-22.8-18.9c-15.6-5.2-15.3-18.5-16.5-25.8c-0.2-1.1-0.4-2-0.7-2.7c-0.7-1.9-1.3-3.9-1.5-6
	c-0.5-4.5,0.5-9.6,4.1-15.5c5.9-9.6,17.3-7.6,23.3-14.4c6.4-7.2,15.7-10.2,25.5-6.5c3.6,1.4,6,3.7,8.1,6.2c3.6,4.2,6.2,8.8,12.2,9.5
	c1.1,0.1,2.1,0.3,3.1,0.6c7.6,2.1,11.8,8.5,11.9,19.2C348.7,235.5,354.5,237,352.2,245.7z"/>
<linearGradient id="SVGID_9_" gradientUnits="userSpaceOnUse" x1="273.4215" y1="243.1386" x2="352.7669" y2="243.1386">
	<stop  offset="0" style="stop-color:#7A4385"/>
	<stop  offset="1" style="stop-color:#402154"/>
</linearGradient>
<path class="st9" d="M352.2,245.7c-2.3,8.7-6.3,13.7-14.2,19c-7.9,5.3-7.4,12.1-13.9,15.5c-6.5,3.4-14.4,2-22.6-2.4
	c-8.1-4.4-4.9-12.9-22.8-18.9c-15.6-5.2,7.6,9.9,6.4,2.7c3.1,5-15.9-21.8-11.1-20.2c6.1,1.9,25.5,25.7,32.2,25.2
	c6.8-0.5,13.6-6.9,26.6-12c12.3-4.8,4.2-11.6,10.8-23.7c4.5-8.2,0.5-23.7-7.3-26.6c7.6,2.1,11.8,8.5,11.9,19.2
	C348.7,235.5,354.5,237,352.2,245.7z"/>
<linearGradient id="SVGID_10_" gradientUnits="userSpaceOnUse" x1="182.2155" y1="308.2299" x2="445.7372" y2="308.2299">
	<stop  offset="0" style="stop-color:#F5586D"/>
	<stop  offset="1" style="stop-color:#F4875C"/>
</linearGradient>
<path class="st10" d="M445.7,174.3c0,0-15.5,76.4-28.4,103.5c-12.9,27.1-60.7,85.6-63.1,96.7c-0.7,3-1.4,11.3-2.2,21.7
	c-2,28.3-4,72.6-4,72.6h-103c-14-35.3-14-87-16.1-103.5c-2.1-16.4-37.6-68.2-44.3-108.8c-6.8-40.6,3-107.6,3-107.6
	c10.4,1.8,20.2-1.2,20.2-1.2s2.4,78.3,5.3,86.5c2,5.6,10.7,29.1,19.3,47.8c0,0,0,0,0,0c4,8.7,7.9,16.4,11.1,20.8
	c10.2,14,22.7,11,22.7,11s32.4-0.8,52.9,3.1c11.8,2.2,29.3-12.3,43.1-27.3h0c10.2-11,18.4-22.3,21-27.4
	c6.3-12.1,42.1-93.3,42.1-93.3C435.6,174.3,445.7,174.3,445.7,174.3z"/>
<linearGradient id="SVGID_11_" gradientUnits="userSpaceOnUse" x1="327.64" y1="484.2852" x2="270.3394" y2="347.9244">
	<stop  offset="0" style="stop-color:#F5586D"/>
	<stop  offset="1" style="stop-color:#F4875C"/>
</linearGradient>
<path class="st11" d="M352.1,396.2c-2,28.3-4,72.6-4,72.6h-88.4C319.8,463.2,343.4,420.7,352.1,396.2z"/>
<path class="st7" d="M277.8,219.4c-4.1,0.8-7.3,6.6-8.4,30.5c-1.1,23.9,6.4,37.6,15,39.5c8.5,1.9,19.8-6.1,23.1-11.6
	c3.2-5.5,4.8-8.6,9.8-10.8c5-2.3,7.1-4.5,8.7-11.1c1.6-6.6-1.8-7.2-5-7.2c-3.2,0-8.8,5.1-8.8,0.6c0-4.5,1.6-11.6,1.6-14
	c0-2.4-10.8-3.2-18.7-6.4C287.1,225.5,279.5,219.1,277.8,219.4z"/>
<path class="st7" d="M319.2,316.9c0,0-10,16.4-30.1,13.1c-20.2-3.4-22.7-16.1-22.7-16.1c8.1-1.5,11.3-10.1,12.5-17.6
	c0.6-3.7,0.7-7.1,0.8-9.3c0-1.6-0.1-2.6-0.1-2.6s36.9-48,31.3-12.2c-0.1,0.6-0.2,1.1-0.3,1.7c-0.5,3.2-0.8,6.2-0.9,9
	C308.2,309.8,319.2,316.9,319.2,316.9z"/>
<path class="st12" d="M408.1,482.2h-96.6c-5.1,0-9.2-4.1-9.2-9.2l0,0c0-5.1,4.1-9.2,9.2-9.2h96.6c5.1,0,9.2,4.1,9.2,9.2l0,0
	C417.4,478,413.2,482.2,408.1,482.2z"/>
<linearGradient id="SVGID_12_" gradientUnits="userSpaceOnUse" x1="294.4303" y1="270.484" x2="295.0751" y2="300.4657">
	<stop  offset="0" style="stop-color:#E88484"/>
	<stop  offset="1" style="stop-color:#F8C1C6"/>
</linearGradient>
<path class="st13" d="M310.6,273.9c-0.5,3.2-0.8,6.2-0.9,9c-4.6,6.4-17.1,20.9-30.9,13.4c0.6-3.7,0.7-7.1,0.8-9.3
	c0,0,5.6,5.6,18.2-3.1c12.6-8.7,12.7-11,12.7-11L310.6,273.9z"/>
<linearGradient id="SVGID_13_" gradientUnits="userSpaceOnUse" x1="260.1361" y1="205.3616" x2="321.3765" y2="205.3616">
	<stop  offset="0" style="stop-color:#C8C0E9"/>
	<stop  offset="1" style="stop-color:#FAFAFA"/>
</linearGradient>
<path class="st14" d="M321.4,194.1c-3.3-0.9-7.8-1.4-13.9-0.7c-16.2,1.7-11.4,16-23.9,14c-11.1-1.7-19.2,3.9-23.2,17
	c-0.5-4.5,0.5-9.6,4.1-15.5c5.9-9.6,17.3-7.6,23.3-14.4c6.4-7.2,15.7-10.2,25.5-6.5C316.9,189.3,319.3,191.6,321.4,194.1z"/>
<path class="st15" d="M246.4,438.8H120.5c-3.2,0-5.9-2.3-6.5-5.4l-16.4-88.9c-0.7-4,2.4-7.8,6.5-7.8h125.9c3.2,0,5.9,2.3,6.5,5.4
	l16.4,88.9C253.6,435.1,250.5,438.8,246.4,438.8z"/>
<linearGradient id="SVGID_14_" gradientUnits="userSpaceOnUse" x1="303.0204" y1="479.0168" x2="32.0335" y2="293.3055">
	<stop  offset="0" style="stop-color:#A15BB1"/>
	<stop  offset="1" style="stop-color:#6C388D"/>
</linearGradient>
<path class="st16" d="M244.8,438.8H112.5c-1.7,0-3.1-1.2-3.4-2.8l-17.6-95.2c-0.4-2.1,1.2-4.1,3.4-4.1h132.3c1.7,0,3.1,1.2,3.4,2.8
	l17.6,95.2C248.6,436.8,247,438.8,244.8,438.8z"/>
<g>
	<g>
		<linearGradient id="SVGID_15_" gradientUnits="userSpaceOnUse" x1="284.0268" y1="470.4458" x2="37.8885" y2="156.1241">
			<stop  offset="0" style="stop-color:#7A4385"/>
			<stop  offset="1" style="stop-color:#402154"/>
		</linearGradient>
		<path class="st17" d="M192.5,350.6l2.9,15.8c0.2,1,1.1,1.8,2.1,1.8l0,0c1.3,0,2.3-1.2,2.1-2.5l-2.9-15.8c-0.2-1-1.1-1.8-2.1-1.8
			l0,0C193.3,348.1,192.3,349.3,192.5,350.6z"/>
	</g>
	<g>
		<linearGradient id="SVGID_16_" gradientUnits="userSpaceOnUse" x1="278.0319" y1="475.1408" x2="31.893" y2="160.8183">
			<stop  offset="0" style="stop-color:#7A4385"/>
			<stop  offset="1" style="stop-color:#402154"/>
		</linearGradient>
		<path class="st18" d="M182.8,350.6l2.9,15.8c0.2,1,1.1,1.8,2.1,1.8h0c1.3,0,2.3-1.2,2.1-2.5l-2.9-15.8c-0.2-1-1.1-1.8-2.1-1.8l0,0
			C183.6,348.1,182.6,349.3,182.8,350.6z"/>
	</g>
	<g>
		<linearGradient id="SVGID_17_" gradientUnits="userSpaceOnUse" x1="272.0367" y1="479.8355" x2="25.8979" y2="165.513">
			<stop  offset="0" style="stop-color:#7A4385"/>
			<stop  offset="1" style="stop-color:#402154"/>
		</linearGradient>
		<path class="st19" d="M173.2,350.6l2.9,15.8c0.2,1,1.1,1.8,2.1,1.8l0,0c1.3,0,2.3-1.2,2.1-2.5l-2.9-15.8c-0.2-1-1.1-1.8-2.1-1.8
			l0,0C173.9,348.1,172.9,349.3,173.2,350.6z"/>
	</g>
	<g>
		<linearGradient id="SVGID_18_" gradientUnits="userSpaceOnUse" x1="266.0415" y1="484.5301" x2="19.9025" y2="170.2075">
			<stop  offset="0" style="stop-color:#7A4385"/>
			<stop  offset="1" style="stop-color:#402154"/>
		</linearGradient>
		<path class="st20" d="M163.5,350.6l2.9,15.8c0.2,1,1.1,1.8,2.1,1.8l0,0c1.3,0,2.3-1.2,2.1-2.5l-2.9-15.8c-0.2-1-1.1-1.8-2.1-1.8
			l0,0C164.3,348.1,163.3,349.3,163.5,350.6z"/>
	</g>
	<g>
		<linearGradient id="SVGID_19_" gradientUnits="userSpaceOnUse" x1="260.0462" y1="489.2246" x2="13.9077" y2="174.9026">
			<stop  offset="0" style="stop-color:#7A4385"/>
			<stop  offset="1" style="stop-color:#402154"/>
		</linearGradient>
		<path class="st21" d="M153.8,350.6l2.9,15.8c0.2,1,1.1,1.8,2.1,1.8h0c1.3,0,2.3-1.2,2.1-2.5l-2.9-15.8c-0.2-1-1.1-1.8-2.1-1.8l0,0
			C154.6,348.1,153.6,349.3,153.8,350.6z"/>
	</g>
	<g>
		<linearGradient id="SVGID_20_" gradientUnits="userSpaceOnUse" x1="254.0512" y1="493.9196" x2="7.9122" y2="179.5969">
			<stop  offset="0" style="stop-color:#7A4385"/>
			<stop  offset="1" style="stop-color:#402154"/>
		</linearGradient>
		<path class="st22" d="M144.2,350.6l2.9,15.8c0.2,1,1.1,1.8,2.1,1.8l0,0c1.3,0,2.3-1.2,2.1-2.5l-2.9-15.8c-0.2-1-1.1-1.8-2.1-1.8
			l0,0C144.9,348.1,143.9,349.3,144.2,350.6z"/>
	</g>
	<g>
		<linearGradient id="SVGID_21_" gradientUnits="userSpaceOnUse" x1="248.0557" y1="498.6139" x2="1.9175" y2="184.2922">
			<stop  offset="0" style="stop-color:#7A4385"/>
			<stop  offset="1" style="stop-color:#402154"/>
		</linearGradient>
		<path class="st23" d="M134.5,350.6l2.9,15.8c0.2,1,1.1,1.8,2.1,1.8l0,0c1.3,0,2.3-1.2,2.1-2.5l-2.9-15.8c-0.2-1-1.1-1.8-2.1-1.8
			l0,0C135.3,348.1,134.2,349.3,134.5,350.6z"/>
	</g>
	<g>
		<linearGradient id="SVGID_22_" gradientUnits="userSpaceOnUse" x1="242.0609" y1="503.309" x2="-4.0783" y2="188.9861">
			<stop  offset="0" style="stop-color:#7A4385"/>
			<stop  offset="1" style="stop-color:#402154"/>
		</linearGradient>
		<path class="st24" d="M124.8,350.6l2.9,15.8c0.2,1,1.1,1.8,2.1,1.8l0,0c1.3,0,2.3-1.2,2.1-2.5l-2.9-15.8c-0.2-1-1.1-1.8-2.1-1.8
			l0,0C125.6,348.1,124.6,349.3,124.8,350.6z"/>
	</g>
</g>
<path class="st25" d="M458.5,472.9c0,2.5-1,4.9-2.7,6.5c-1.7,1.7-4,2.7-6.5,2.7H90.9c-5.1,0-9.2-4.1-9.2-9.2c0-1.7,0.4-3.3,1.2-4.6
	c0.4-0.7,0.9-1.3,1.5-1.9c1.7-1.7,4-2.7,6.5-2.7h358.4c3.4,0,6.4,1.9,8,4.6C458,469.7,458.5,471.2,458.5,472.9z"/>
<g>
	<linearGradient id="SVGID_23_" gradientUnits="userSpaceOnUse" x1="266.8304" y1="540.9715" x2="82.1051" y2="332.0673">
		<stop  offset="0" style="stop-color:#C8C0E9"/>
		<stop  offset="1" style="stop-color:#FAFAFA"/>
	</linearGradient>
	<path class="st26" d="M205.7,456.5H163l13.8-73.2h12.7c1.7,0,3.2-1.2,3.5-2.9c0.4-2.2-1.3-4.3-3.5-4.3h-11.3h-3.5H171l-42.5,87.5
		H158h3.6h44.1c1.7,0,3.2-1.2,3.5-2.9l0,0C209.6,458.6,207.9,456.5,205.7,456.5z"/>
	<linearGradient id="SVGID_24_" gradientUnits="userSpaceOnUse" x1="153.9426" y1="379.1042" x2="129.2803" y2="508.7018">
		<stop  offset="0" style="stop-color:#7A4385"/>
		<stop  offset="1" style="stop-color:#402154"/>
	</linearGradient>
	<path class="st27" d="M154.5,463.7h-28.7c-2.3,0-4-2.1-3.6-4.4l15.2-80.2c0.3-1.7,1.8-3,3.6-3H171L154.5,463.7z"/>
</g>
<path class="st28" d="M457.3,468.3c-0.4,0.7-0.9,1.3-1.5,1.9c-1.7,1.7-4,2.7-6.5,2.7H90.9c-3.4,0-6.4-1.9-8-4.6
	c0.4-0.7,0.9-1.3,1.5-1.9c1.7-1.7,4-2.7,6.5-2.7h358.4C452.7,463.7,455.7,465.6,457.3,468.3z"/>
</svg>
