<?xml version="1.0" encoding="utf-8"?>
<!-- Generator: Adobe Illustrator 22.1.0, SVG Export Plug-In . SVG Version: 6.00 Build 0)  -->
<svg version="1.1" id="Layer_1" xmlns="http://www.w3.org/2000/svg" xmlns:xlink="http://www.w3.org/1999/xlink" x="0px" y="0px"
	 viewBox="0 0 600 600" style="enable-background:new 0 0 600 600;" xml:space="preserve">
<style type="text/css">
	.st0{fill:url(#SVGID_1_);}
	.st1{fill:#F9C2C5;}
	.st2{fill:#FFFFFF;}
	.st3{fill:url(#SVGID_2_);}
	.st4{fill:url(#SVGID_3_);}
	.st5{fill:url(#SVGID_4_);}
	.st6{fill:url(#SVGID_5_);}
	.st7{fill:url(#SVGID_6_);}
	.st8{fill:url(#SVGID_7_);}
	.st9{fill:#F0BEBE;}
	.st10{opacity:0.72;}
	.st11{fill:#F5DFDF;}
	.st12{fill:url(#SVGID_8_);}
	.st13{fill:url(#SVGID_9_);}
	.st14{fill:url(#SVGID_10_);}
	.st15{fill:url(#SVGID_11_);}
	.st16{fill:url(#SVGID_12_);}
	.st17{fill:url(#SVGID_13_);}
	.st18{fill:url(#SVGID_14_);}
	.st19{fill:#D1CCEC;}
	.st20{fill:#BEB7E1;}
	.st21{fill:url(#SVGID_15_);}
	.st22{fill:url(#SVGID_16_);}
	.st23{opacity:0.49;fill:url(#SVGID_17_);}
</style>
<linearGradient id="SVGID_1_" gradientUnits="userSpaceOnUse" x1="137.0933" y1="747.112" x2="314.62" y2="313.9471">
	<stop  offset="0" style="stop-color:#C8C0E9"/>
	<stop  offset="1" style="stop-color:#FAFAFA"/>
</linearGradient>
<path class="st0" d="M471.1,356.9c29.8,30.1,5.3,82.1-58.8,117.2h0c-15.3,8.4-32.8,15.8-52.4,21.7c-2.9,0.9-5.8,1.7-8.8,2.5
	c-0.3,0.1-0.6,0.2-0.9,0.3c-0.2,0.1-0.4,0.1-0.6,0.2c-10,2.7-20.5,4.9-31.4,6.7c-10,1.7-20.3,2.9-30.8,3.6c-6.9,0.5-14,0.8-21.1,1
	c-6.3,0.1-12.6,0.1-18.9-0.1c-2.8-0.1-7-0.3-12.5-0.7c-2.7-0.2-5.6-0.5-8.8-0.8c-2.4-0.2-4.9-0.5-7.5-0.8
	c-21.6-2.7-50.7-8.2-76.5-19.8c-2-0.9-4-1.8-5.9-2.8c-8.5-4.2-16.6-9.2-23.7-14.9c-19.5-15.7-32.3-37.6-29.7-68.1
	c7.1-84.1,92.6-176.5,206.2-218.4c84.9-31.3,208.5-63.8,227,2.4C538.1,265.2,421.1,306.4,471.1,356.9z"/>
<g>
	<g>
		<g>
			<path class="st1" d="M300.2,174c-0.4-3.6,44.9-113.2,59.9-123c15-9.8,61.5-16.3-44.4,205.5L300.2,174z"/>
		</g>
	</g>
</g>
<path class="st2" d="M90,373.4h92.7c0,0,11.9-0.2,12-8.7c0.1-8.4-12.7-9.5-22.4-7.1c-9.6,2.4-6.8-14.2-20.1-21
	c-17.2-8.8-28.6,1.7-31.6,7.7c-3,6-5.4,14-15.7,9.7c-11.6-4.8-22.3,5-23.6,13.2C80.6,371.7,83.2,373.4,90,373.4z"/>
<path class="st2" d="M496.3,231.9h-44.7c0,0-8.6,0.5-9.5-4.4c-0.9-4.9,4.4-7.7,10.1-6.3c5.8,1.4,4.3-6.9,14.1-10.4
	c9.8-3.5,13.9,4.4,15.8,8.5c2,4.1,5.7-0.4,13.5,2.2C503.4,224.1,501.8,231.9,496.3,231.9z"/>
<linearGradient id="SVGID_2_" gradientUnits="userSpaceOnUse" x1="348.9267" y1="499.9437" x2="350.5281" y2="499.9437">
	<stop  offset="0" style="stop-color:#6AEBD5"/>
	<stop  offset="1" style="stop-color:#2F95AE"/>
</linearGradient>
<path class="st3" d="M349.9,495.6l0.6,1.5c-0.1,0.6-0.3,1.1-0.4,1.6c-0.8,3.4-1.2,5.4-1.2,5.7l0.6-5.5L349.9,495.6z"/>
<linearGradient id="SVGID_3_" gradientUnits="userSpaceOnUse" x1="350.5281" y1="438.5509" x2="446.6449" y2="438.5509">
	<stop  offset="0" style="stop-color:#6AEBD5"/>
	<stop  offset="1" style="stop-color:#2F95AE"/>
</linearGradient>
<path class="st4" d="M403.3,430.4c1,1.4,15.5,0.7,23.1-0.7c7.6-1.4,11.9-3.6,10.7-1.4c-4.7,8.8-1.1,13.8-6.9,23.4
	c-5.2,8.6-8.6,10-17.2,9.7c-8.6-0.3-11.4,0.7-9,3.1c2.4,2.4,14.5,1.7,16.9,1.7c1,0-3,1.7-6.4,5.3c-0.9,0.9-1.6,1.8-2.2,2.7h0
	c-15.3,8.4-32.8,15.8-52.4,21.7c-2.9,0.9-5.8,1.7-8.8,2.5l-0.6-1.3c1.8-7.2,5.1-18.9,10.9-32.1v0c6.3-14.5,15.3-30.7,28.1-44.6
	c32.1-34.8,55.5-42.8,56.9-41.5c1.4,1.2-4,6.6-4,15.9c0,9.3,0.2,20.4-8.8,25.6C424.7,425.6,402.3,429,403.3,430.4z"/>
<linearGradient id="SVGID_4_" gradientUnits="userSpaceOnUse" x1="166.7874" y1="450.9073" x2="266.2892" y2="450.9073">
	<stop  offset="0" style="stop-color:#6AEBD5"/>
	<stop  offset="1" style="stop-color:#2F95AE"/>
</linearGradient>
<path class="st5" d="M266.3,510.1c-6.3,0.1-12.6,0.1-18.9-0.1c-2.8-0.1-7-0.3-12.5-0.7c-2.7-0.2-5.6-0.5-8.8-0.8
	c-0.8,0.2-1.6,0.4-2.5,0.7c-0.1,0-0.1,0-0.2,0c-1.7-0.4-3.4-0.9-4.8-1.6c-1.1-0.5-2.1-1.1-3-1.8c-9.5-7.5-10.2-11.5-15.1-16.8
	c-3.5-3.8-7.8-5.5-6.7-5.5c1.4,0,5.7,0.2,9.8,0c3.5-0.2,6.8-0.7,8-1.8c2.5-2.5-0.4-3.6-9.4-3.3c-3.9,0.2-6.8,0-9.2-1
	c-0.6-0.3-1.3-0.6-1.9-1c-2.4-1.5-4.5-4.1-7-8.2c-6.1-10.1-2.3-15.3-7.3-24.6c-1.2-2.3,3.3,0,11.2,1.5c8,1.4,23.2,2.2,24.3,0.7
	c1.1-1.5-22.5-5.1-31.9-10.5c-9.4-5.5-9.2-17.2-9.2-27c0-9.8-5.6-15.4-4.2-16.7c1.5-1.3,26.1,7.1,59.8,43.7
	c4.5,4.9,8.6,10,12.2,15.3C254.1,472.3,262.3,495.8,266.3,510.1z"/>
<linearGradient id="SVGID_5_" gradientUnits="userSpaceOnUse" x1="82.4393" y1="491.3781" x2="234.9513" y2="491.3781">
	<stop  offset="0" style="stop-color:#6AEBD5"/>
	<stop  offset="1" style="stop-color:#2F95AE"/>
</linearGradient>
<path class="st6" d="M235,509.4c-2.7-0.2-5.6-0.5-8.8-0.8c-0.8-0.1-1.6,0.4-2.5,0.7c-0.1,0-0.1,0-0.2,0c-11.9,3.1-34.8,7.9-38,7.6
	c-4.2-0.5,5.4-11.3,4.2-13.7c-1.2-2.4-9.3,8.4-15,11c-5.7,2.7-15.2,1.8-27.8-4.8c-12.6-6.7-17.3-1.5-20.1-3.6c-2.8-2.2,1-6.7,6.4-11
	c2.6-2.1,6.3-4.5,9.1-6.8c3-2.5,5-4.9,3.6-6.8c-1.8-2.4-5.3,0.5-9.5,4c-2.1,1.8-4.4,3.7-6.8,5.1c-7.1,4.3-16.4,8.1-23,5.3
	c-6.5-2.8-16.2-13.5-20.8-15.6c-4.5-2.1-5.4-3.8,4.8-5c4.3-0.5,12.1-2.7,22-4.8c13.9-3,31.9-5.8,49.7-3.6c9.4,1.2,19.5,5.1,28.9,9.9
	c0.6,0.3,1.2,0.6,1.9,1c3.7,1.9,7.3,4,10.7,6.1c15.2,9.4,26.6,19,26.6,19S234,506.7,235,509.4z"/>
<g>
	<g>
		<g>
			<linearGradient id="SVGID_6_" gradientUnits="userSpaceOnUse" x1="658.4952" y1="274.807" x2="81.4933" y2="173.3463">
				<stop  offset="0" style="stop-color:#E88484"/>
				<stop  offset="1" style="stop-color:#F8C1C6"/>
			</linearGradient>
			<path class="st7" d="M398.8,171.3c12.9-0.2,31.3,0,31.3,0l-11.1,43.1l-12,17.9l20.7,10.7l-56,44.8c0,0-17.1-82.3-15.4-84.2
				C358.2,201.7,398.8,171.3,398.8,171.3z"/>
		</g>
	</g>
</g>
<g>
	<g>
		<g>
			<path class="st1" d="M373.9,402.4c-1.9,0.8-3.5,2.2-4.9,4c-7.4,9.8-7.4,32.9-7.6,58.5v0c-0.1,7.1-0.1,14.3-0.4,21.5
				c-0.1,3.2-0.5,6.3-1.1,9.4c-2.9,0.9-5.8,1.7-8.8,2.5c-0.3,0.1-0.6,0.2-0.9,0.3c-0.2,0.1-0.4,0.1-0.6,0.2
				c-10,2.7-20.5,4.9-31.4,6.7c-10,1.7-20.3,2.9-30.8,3.6c-6.9,0.5-14,0.8-21.1,1c-6.3,0.1-12.6,0.1-18.9-0.1
				c-2.4-17.3-5.7-41.9-8.4-59.3c-1.5-9.8-2.8-17.2-3.5-19.8c-1.4-4.6-4.2-11-7.5-17.8c-4.1-8.5-9-17.6-12.5-24.1
				c-2.3-4.2-4-7.3-4.7-8.5c0,0,0,0,0,0c-0.2-0.3-0.3-0.5-0.3-0.5s0,0,0,0c0.5,0,5.1,0.3,12.5,0.8c3.4,0.2,7.4,0.5,11.9,0.8
				c7.3,0.5,15.9,1.1,25.2,1.9c6.2,0.5,12.8,1,19.4,1.6C330.5,389.4,388.6,395.9,373.9,402.4z"/>
		</g>
	</g>
</g>
<g>
	<g>
		<g>
			<path class="st1" d="M250.8,421c-3.7,0.8-8.6-0.9-15.2-6.9c-3.4-3.1-7.2-7.2-11.5-12.7c-40.2-51.2-22.3-104-27.9-139.3
				c-5.7-35.3-13.6-61.1-7-64.8c1.7-0.9,3.3-1.4,4.8-1.6c0,0,0,0,0,0c8.5-1.1,15.4,8,21.2,21.2c0,0,0,0,0,0c0,0,0,0,0,0
				c6.1,13.9,10.9,32.5,15,48.6c2.3,9.2,4.3,17.6,6.2,23.9c1.6,5.5,3.5,12.5,5.5,20.1c1.8,6.9,3.7,14.4,5.6,21.9
				c7.1,28.3,13.7,57,13.7,57S262.7,418.3,250.8,421z"/>
		</g>
	</g>
</g>
<g>
	<g>
		<g>
			<linearGradient id="SVGID_7_" gradientUnits="userSpaceOnUse" x1="631.1907" y1="468.0168" x2="44.5138" y2="364.8548">
				<stop  offset="0" style="stop-color:#E88484"/>
				<stop  offset="1" style="stop-color:#F8C1C6"/>
			</linearGradient>
			<path class="st8" d="M277.3,402.4c0,0,9.9,10,16,39.1c0,0,12.5-44.6,5-61.5C290.7,363.1,277.3,402.4,277.3,402.4z"/>
		</g>
	</g>
</g>
<g>
	<g>
		<g>
			<path class="st9" d="M335,194.6c-0.3-2.8,35.9-90.4,47.8-98.2c12-7.8,49.1-13-35.4,164.1L335,194.6z"/>
		</g>
	</g>
</g>
<g>
	<g>
		<g class="st10">
			<path class="st11" d="M190.2,229.5c0,0,5.3-8.7-1-32.1C189.2,197.3,181.5,194.1,190.2,229.5z"/>
		</g>
	</g>
</g>
<g>
	<linearGradient id="SVGID_8_" gradientUnits="userSpaceOnUse" x1="234.9495" y1="246.8103" x2="410.3358" y2="246.8103">
		<stop  offset="0" style="stop-color:#7A4385"/>
		<stop  offset="1" style="stop-color:#402154"/>
	</linearGradient>
	<path class="st12" d="M410.3,107.7v278.3c0,11.3-9.2,20.5-20.5,20.5H255.4c-11.3,0-20.5-9.2-20.5-20.5V107.7
		c0-11.3,9.2-20.5,20.5-20.5h134.5C401.2,87.2,410.3,96.4,410.3,107.7z"/>
</g>
<g>
	<linearGradient id="SVGID_9_" gradientUnits="userSpaceOnUse" x1="224.434" y1="502.4556" x2="395.593" y2="56.913">
		<stop  offset="0" style="stop-color:#C8C0E9"/>
		<stop  offset="1" style="stop-color:#FAFAFA"/>
	</linearGradient>
	<path class="st13" d="M243,386.6V107.1c0-6.5,5.3-11.8,11.8-11.8h135.7c6.5,0,11.8,5.3,11.8,11.8v279.5c0,6.5-5.3,11.8-11.8,11.8
		H254.8C248.3,398.4,243,393.1,243,386.6z"/>
</g>
<g>
	<g>
		<path class="st2" d="M345.1,372.5h-7.9c-0.6,0-1.1-0.5-1.1-1.1v-39.6c0-0.6,0.5-1.1,1.1-1.1h7.9c0.6,0,1.1,0.5,1.1,1.1v39.6
			C346.1,372.1,345.6,372.5,345.1,372.5z"/>
	</g>
	<g>
		<path class="st2" d="M325.6,372.5h-7.9c-0.6,0-1.1-0.5-1.1-1.1v-39.6c0-0.6,0.5-1.1,1.1-1.1h7.9c0.6,0,1.1,0.5,1.1,1.1v39.6
			C326.6,372.1,326.2,372.5,325.6,372.5z"/>
	</g>
	<g>
		<path class="st2" d="M306.1,372.5h-7.9c-0.6,0-1.1-0.5-1.1-1.1v-39.6c0-0.6,0.5-1.1,1.1-1.1h7.9c0.6,0,1.1,0.5,1.1,1.1v39.6
			C307.2,372.1,306.7,372.5,306.1,372.5z"/>
	</g>
	<g>
		<path class="st2" d="M286.6,372.5h-7.9c-0.6,0-1.1-0.5-1.1-1.1v-39.6c0-0.6,0.5-1.1,1.1-1.1h7.9c0.6,0,1.1,0.5,1.1,1.1v39.6
			C287.7,372.1,287.2,372.5,286.6,372.5z"/>
	</g>
	<linearGradient id="SVGID_10_" gradientUnits="userSpaceOnUse" x1="271.58" y1="334.8979" x2="300.1216" y2="398.7768">
		<stop  offset="0" style="stop-color:#F5586D"/>
		<stop  offset="1" style="stop-color:#F4875C"/>
	</linearGradient>
	<rect x="277.7" y="358.4" class="st14" width="10" height="2.7"/>
	<linearGradient id="SVGID_11_" gradientUnits="userSpaceOnUse" x1="294.7795" y1="324.5318" x2="323.3214" y2="388.4114">
		<stop  offset="0" style="stop-color:#F5586D"/>
		<stop  offset="1" style="stop-color:#F4875C"/>
	</linearGradient>
	<rect x="297.2" y="339.7" class="st15" width="10" height="2.7"/>
	<linearGradient id="SVGID_12_" gradientUnits="userSpaceOnUse" x1="306.4416" y1="319.3214" x2="334.9834" y2="383.2006">
		<stop  offset="0" style="stop-color:#F5586D"/>
		<stop  offset="1" style="stop-color:#F4875C"/>
	</linearGradient>
	<rect x="316.7" y="352" class="st16" width="10" height="2.7"/>
	<g>
		<path class="st2" d="M364.3,372.5h-7.9c-0.6,0-1.1-0.5-1.1-1.1v-39.6c0-0.6,0.5-1.1,1.1-1.1h7.9c0.6,0,1.1,0.5,1.1,1.1v39.6
			C365.4,372.1,364.9,372.5,364.3,372.5z"/>
	</g>
	<linearGradient id="SVGID_13_" gradientUnits="userSpaceOnUse" x1="338.7312" y1="304.8945" x2="367.2728" y2="368.7733">
		<stop  offset="0" style="stop-color:#F5586D"/>
		<stop  offset="1" style="stop-color:#F4875C"/>
	</linearGradient>
	<rect x="355.4" y="352" class="st17" width="10" height="2.7"/>
	<linearGradient id="SVGID_14_" gradientUnits="userSpaceOnUse" x1="318.9475" y1="313.7339" x2="347.4892" y2="377.6129">
		<stop  offset="0" style="stop-color:#F5586D"/>
		<stop  offset="1" style="stop-color:#F4875C"/>
	</linearGradient>
	<rect x="336.1" y="362.1" class="st18" width="10" height="2.7"/>
</g>
<g>
	<circle class="st2" cx="293.2" cy="153.1" r="33.1"/>
	<g>
		<path class="st19" d="M299.4,170c0-5.2-2.7-9.1-2.7-9.1l-3.6,7.7l-3.6-7.7c0,0-2.6,3.9-2.7,9.1c0,4.8,5.5,5.2,6.2,5.3v0
			c0,0,0,0,0,0c0,0,0,0,0,0v0C294,175.2,299.5,174.8,299.4,170z"/>
		<path class="st20" d="M315.7,161.2c-3.1-2-5.3-7.3-4.9-13.7c0.4-6.4-1.2-15.2-7.9-18.1c-4.2-1.8-6.2-0.8-8,0.1
			c-1.1,0.6-2.3,0.6-3.4,0c-1.8-1-3.9-1.9-8-0.1c-6.7,2.9-8.3,11.7-7.9,18.1c0.4,6.4-1.8,11.7-4.9,13.7c-3.1,2-1.7,4,0,5.6
			c1.7,1.6,6.9-0.3,11.1,2.6c4.2,2.9,6.1,0.4,6.7-2.7c0.7-3.1,4.7-28.1,4.7-28.1l0-3.9l0,3.9c0,0,4,24.9,4.7,28.1
			c0.7,3.1,2.5,5.6,6.7,2.7c4.2-2.9,9.4-1,11.1-2.6C317.4,165.2,318.8,163.2,315.7,161.2z"/>
		<path class="st19" d="M293.2,168.7L293.2,168.7c-2.2,0-4.2-1.3-5.9-3.4c-3-3.8-5-4.5-5-8.3v-19.3h21.9v19.3c0,3.9-2,4.6-5.1,8.4
			C297.4,167.5,295.3,168.7,293.2,168.7z"/>
		<path class="st19" d="M282.3,146.1h-0.5c-1.7,0-2.8,1.8-2.1,3.3l2.6,5.4c0,0,1.9-4.5,1.9-4.9C284.2,149.5,282.3,146.1,282.3,146.1
			z"/>
		<path class="st19" d="M304.1,146.1h0.5c1.7,0,2.8,1.8,2.1,3.3l-2.6,5.4c0,0-1.9-4.5-1.9-4.9C302.2,149.5,304.1,146.1,304.1,146.1z
			"/>
	</g>
	<path class="st20" d="M282.3,146.1c0,0,2.6-2.5,6.2-8c0,0,6.1,6.7,15.7,8c0,0,2.4-5.6,2.4-6.7c0-1.1-1.9-4.8-3.7-5.1
		c-1.7-0.3-18.8-1.7-21,0C279.6,136,282.3,146.1,282.3,146.1z"/>
</g>
<g>
	<path class="st19" d="M379.9,140.5h-33.5c-3.4,0-6.1-2.7-6.1-6.1l0,0c0-3.4,2.7-6.1,6.1-6.1h33.5c3.4,0,6.1,2.7,6.1,6.1l0,0
		C386,137.8,383.3,140.5,379.9,140.5z"/>
	<path class="st2" d="M383.6,155h-41c-1.3,0-2.4-1.1-2.4-2.4l0,0c0-1.3,1.1-2.4,2.4-2.4h41c1.3,0,2.4,1.1,2.4,2.4l0,0
		C386,153.9,384.9,155,383.6,155z"/>
	<path class="st2" d="M383.6,169.3h-41c-1.3,0-2.4-1.1-2.4-2.4l0,0c0-1.3,1.1-2.4,2.4-2.4h41c1.3,0,2.4,1.1,2.4,2.4l0,0
		C386,168.2,384.9,169.3,383.6,169.3z"/>
	<path class="st2" d="M383.6,183.8h-41c-1.3,0-2.4-1.1-2.4-2.4l0,0c0-1.3,1.1-2.4,2.4-2.4h41c1.3,0,2.4,1.1,2.4,2.4l0,0
		C386,182.7,384.9,183.8,383.6,183.8z"/>
</g>
<g>
	<circle class="st2" cx="293.2" cy="241.9" r="33.1"/>
	<g>
		<path class="st19" d="M299.4,258.7c0-5.2-2.7-9.1-2.7-9.1l-3.6,7.7l-3.6-7.7c0,0-2.6,3.9-2.7,9.1c0,4.8,5.5,5.2,6.2,5.3v0
			c0,0,0,0,0,0c0,0,0,0,0,0v0C294,264,299.5,263.5,299.4,258.7z"/>
		<path class="st20" d="M315.7,250c-3.1-2-5.3-7.3-4.9-13.7c0.4-6.4-1.2-15.2-7.9-18.1c-4.2-1.8-6.2-0.8-8,0.1
			c-1.1,0.6-2.3,0.6-3.4,0c-1.8-1-3.9-1.9-8-0.1c-6.7,2.9-8.3,11.7-7.9,18.1c0.4,6.4-1.8,11.7-4.9,13.7c-3.1,2-1.7,4,0,5.6
			c1.7,1.6,6.9-0.3,11.1,2.6c4.2,2.9,6.1,0.4,6.7-2.7c0.7-3.1,4.7-28.1,4.7-28.1l0-3.9l0,3.9c0,0,4,24.9,4.7,28.1
			c0.7,3.1,2.5,5.6,6.7,2.7c4.2-2.9,9.4-1,11.1-2.6C317.4,253.9,318.8,251.9,315.7,250z"/>
		<path class="st19" d="M293.2,257.5L293.2,257.5c-2.2,0-4.2-1.3-5.9-3.4c-3-3.8-5-4.5-5-8.3v-19.3h21.9v19.3c0,3.9-2,4.6-5.1,8.4
			C297.4,256.3,295.3,257.5,293.2,257.5z"/>
		<path class="st19" d="M282.3,234.9h-0.5c-1.7,0-2.8,1.8-2.1,3.3l2.6,5.4c0,0,1.9-4.5,1.9-4.9C284.2,238.3,282.3,234.9,282.3,234.9
			z"/>
		<path class="st19" d="M304.1,234.9h0.5c1.7,0,2.8,1.8,2.1,3.3l-2.6,5.4c0,0-1.9-4.5-1.9-4.9C302.2,238.3,304.1,234.9,304.1,234.9z
			"/>
	</g>
	<path class="st20" d="M282.3,234.9c0,0,2.6-2.5,6.2-8c0,0,6.1,6.7,15.7,8c0,0,2.4-5.6,2.4-6.7c0-1.1-1.9-4.8-3.7-5.1
		c-1.7-0.3-18.8-1.7-21,0C279.6,224.8,282.3,234.9,282.3,234.9z"/>
</g>
<g>
	<path class="st19" d="M379.9,229.3h-33.5c-3.4,0-6.1-2.7-6.1-6.1l0,0c0-3.4,2.7-6.1,6.1-6.1h33.5c3.4,0,6.1,2.7,6.1,6.1l0,0
		C386,226.6,383.3,229.3,379.9,229.3z"/>
	<path class="st2" d="M383.6,243.7h-41c-1.3,0-2.4-1.1-2.4-2.4l0,0c0-1.3,1.1-2.4,2.4-2.4h41c1.3,0,2.4,1.1,2.4,2.4l0,0
		C386,242.7,384.9,243.7,383.6,243.7z"/>
	<path class="st2" d="M383.6,258.1h-41c-1.3,0-2.4-1.1-2.4-2.4l0,0c0-1.3,1.1-2.4,2.4-2.4h41c1.3,0,2.4,1.1,2.4,2.4l0,0
		C386,257,384.9,258.1,383.6,258.1z"/>
	<path class="st2" d="M383.6,272.6h-41c-1.3,0-2.4-1.1-2.4-2.4l0,0c0-1.3,1.1-2.4,2.4-2.4h41c1.3,0,2.4,1.1,2.4,2.4l0,0
		C386,271.5,384.9,272.6,383.6,272.6z"/>
</g>
<g>
	<g>
		<g>
			<path class="st1" d="M414.8,312.6c-20.3,14.7-39.4,28.7-45,19.6c-1.1-1.8-1.7-3.8-1.7-5.9c0-10.2,12.5-23,28.7-35
				c14.4-10.8,23.2-18.2,30.5-17.1c2.6,0.4,4.9,1.7,7.3,4.4C440,284.4,436,297.3,414.8,312.6z"/>
		</g>
	</g>
</g>
<g>
	<g>
		<g>
			<linearGradient id="SVGID_15_" gradientUnits="userSpaceOnUse" x1="646.3375" y1="343.9469" x2="69.3358" y2="242.4862">
				<stop  offset="0" style="stop-color:#E88484"/>
				<stop  offset="1" style="stop-color:#F8C1C6"/>
			</linearGradient>
			<path class="st21" d="M427.4,274.2c-6.1,7-11.5,10.4-18.2,16.6c-11.9,11-20.2,17.2-31.6,27.4c-4,3.6-7,6.3-9.4,8.1
				c0-10.2,12.5-23,28.7-35C411.3,280.5,420,273.1,427.4,274.2z"/>
		</g>
	</g>
</g>
<g>
	<g>
		<g>
			<path class="st1" d="M428.8,243.7c5.6,4.5,9,11.8,0.3,23.4c-8,10.6-14.1,14.1-22.2,21.6c-11.9,11-20.2,17.2-31.6,27.4
				c-12,10.7-15.3,13.7-20.6,8.5c-9.8-9.5,6.8-31.7,27.4-51.4C405.2,251.3,414.9,232.6,428.8,243.7z"/>
		</g>
	</g>
</g>
<g class="st10">
	<g>
		<g>
			<path class="st11" d="M370.8,310.8c-2.7-3.3-7.6-1.9-13.1,4c-5.5,5.9-3.9,9.2-0.9,11.6C361.6,330.1,377,318.1,370.8,310.8z"/>
		</g>
	</g>
</g>
<g class="st10">
	<g>
		<g>
			<path class="st11" d="M386.3,324.7c2.6,3.2-2.8,9.6-10.7,10.4c-3.3,0.3-4.9-5.2-0.2-8C380.1,324.3,383.8,321.6,386.3,324.7z"/>
		</g>
	</g>
</g>
<g>
	<g>
		<g>
			<path class="st1" d="M293,440.1L250.8,421l-15.2-6.9l-11.5-12.7L218,283.8l10.8-19.4l0.6-1c0,0,0.3,0.7,0.8,2.1
				c3.8,10,20.5,52.6,31.1,69.7c8.4,13.4,17.5,45.9,23.8,71.3c0,0,0,0,0,0C289.9,425.2,293,440.1,293,440.1z"/>
		</g>
	</g>
</g>
<g>
	<g>
		<g>
			<path class="st1" d="M436.8,176c8.2,11.1,8.8,21.5-15.5,43.3c-33.9,30.4-40.4,49.8-56.1,47c-15.7-2.8-8.2-25,12.2-46.9
				c12.4-13.4,22.3-27.3,35.1-42.3C419.1,169.3,431.6,168.9,436.8,176z"/>
		</g>
	</g>
</g>
<g class="st10">
	<g>
		<g>
			<path class="st11" d="M382.3,243.9c-2.7-3.3-12.5-6.1-21.6,8c-9.2,14.1,5.5,17,10.8,12.8C376.8,260.4,388,250.7,382.3,243.9z"/>
		</g>
	</g>
</g>
<linearGradient id="SVGID_16_" gradientUnits="userSpaceOnUse" x1="215.2416" y1="216.8381" x2="215.2459" y2="216.8381">
	<stop  offset="0" style="stop-color:#E88484"/>
	<stop  offset="1" style="stop-color:#F8C1C6"/>
</linearGradient>
<path class="st22" d="M215.2,216.8C215.2,216.8,215.2,216.8,215.2,216.8C215.2,216.8,215.2,216.8,215.2,216.8
	C215.2,216.8,215.2,216.8,215.2,216.8z"/>
<linearGradient id="SVGID_17_" gradientUnits="userSpaceOnUse" x1="230.2136" y1="335.9108" x2="285.1477" y2="335.9108">
	<stop  offset="0" style="stop-color:#E88484"/>
	<stop  offset="1" style="stop-color:#F8C1C6"/>
</linearGradient>
<path class="st23" d="M285.1,406.4c-10-36.5-25.9-57.7-37.6-75c-8.5-12.6-11.5-17.3-14.6-31c-2-9.1-1-19.1-2.8-34.9
	c3.8,10,20.5,52.6,31.1,69.7C269.7,348.6,278.8,381.1,285.1,406.4z"/>
</svg>
