<?xml version="1.0" encoding="utf-8"?>
<!-- Generator: Adobe Illustrator 22.1.0, SVG Export Plug-In . SVG Version: 6.00 Build 0)  -->
<svg version="1.1" id="Layer_1" xmlns="http://www.w3.org/2000/svg" xmlns:xlink="http://www.w3.org/1999/xlink" x="0px" y="0px"
	 viewBox="0 0 600 600" style="enable-background:new 0 0 600 600;" xml:space="preserve">
<style type="text/css">
	.st0{fill:url(#SVGID_1_);}
	.st1{fill:#F9C2C5;}
	.st2{fill:#FFD289;}
	.st3{fill:#BEB7E1;}
	.st4{fill:#AAA1D9;}
	.st5{fill:url(#SVGID_2_);}
	.st6{fill:#F83F61;}
	.st7{opacity:0.14;fill:url(#SVGID_3_);}
	.st8{fill:url(#SVGID_4_);}
	.st9{fill:url(#SVGID_5_);}
	.st10{fill:url(#SVGID_6_);}
	.st11{fill:url(#SVGID_7_);}
	.st12{fill:none;stroke:#000000;stroke-miterlimit:10;}
	.st13{fill:url(#SVGID_8_);}
	.st14{fill:url(#SVGID_9_);}
	.st15{fill:url(#SVGID_10_);}
	.st16{fill:url(#SVGID_11_);}
	.st17{fill:url(#SVGID_12_);}
	.st18{opacity:0.29;fill:url(#SVGID_13_);}
	.st19{fill:url(#SVGID_14_);}
	.st20{fill:url(#SVGID_15_);}
	.st21{fill:url(#SVGID_16_);}
	.st22{fill:url(#SVGID_17_);}
	.st23{opacity:0.29;fill:#FFFFFF;}
</style>
<g>
	<linearGradient id="SVGID_1_" gradientUnits="userSpaceOnUse" x1="111.2054" y1="945.3096" x2="366.8923" y2="184.704">
		<stop  offset="0" style="stop-color:#C8C0E9"/>
		<stop  offset="1" style="stop-color:#FAFAFA"/>
	</linearGradient>
	<path class="st0" d="M527.1,363.2c-7.9,14.8-19.9,30.2-35.7,44.9c-0.9,0.8-1.8,1.7-2.8,2.5c-3.3,2.9-6.7,5.9-10.3,8.7
		c0,0-0.1,0.1-0.1,0.1c-2.8,2.2-5.6,4.4-8.6,6.6c-0.1,0.1-0.2,0.2-0.3,0.2c-3.2,2.3-6.5,4.6-9.9,6.9c-5.1,3.4-10.4,6.7-15.9,10
		c-2.9,1.7-5.8,3.3-8.8,4.9c-12.1,6.6-25.1,12.7-39.2,18.2c-3.7,1.4-7.5,2.9-11.3,4.2c-1.2,0.4-2.5,0.9-3.7,1.3h0
		c-0.4,0.2-0.9,0.3-1.3,0.4c-0.1,0-0.2,0.1-0.3,0.1c-1.3,0.5-2.7,0.9-4.1,1.4c-4.4,1.5-8.9,2.8-13.5,4.2c-0.3,0.1-0.5,0.2-0.8,0.2
		c-1.1,0.3-2.2,0.6-3.3,0.9c-5.6,1.6-11.4,3-17.3,4.4c-1.4,0.3-2.8,0.7-4.2,1c-1.2,0.3-2.4,0.5-3.7,0.8c-19.5,4.3-38.3,7.1-56.2,8.7
		c-0.1,0-0.3,0-0.4,0c-4.2,0.4-8.4,0.7-12.6,0.9c-4.4,0.2-8.8,0.4-13.1,0.5c-3.4,0.1-6.7,0.1-10,0.1c-0.4,0-0.9,0-1.3,0
		c-12.2-0.1-23.8-0.9-34.8-2.4c-0.7-0.1-1.4-0.2-2-0.3c-3.9-0.5-7.7-1.1-11.4-1.8c-0.3-0.1-0.7-0.1-1-0.2c-0.1,0-0.1,0-0.2,0
		c0,0,0,0-0.1,0c-0.1,0-0.3,0-0.4-0.1c-0.2,0-0.3-0.1-0.5-0.1c-0.2,0-0.3-0.1-0.4-0.1c-0.1,0-0.3-0.1-0.4-0.1
		c-0.4-0.1-0.7-0.1-1.1-0.2c-0.5-0.1-1-0.2-1.5-0.3c-0.7-0.1-1.4-0.3-2.1-0.4c-2.7-0.6-5.4-1.2-8-1.9c-3.7-0.9-7.3-2-10.8-3.1
		c-7.7-2.4-14.9-5.2-21.7-8.4c-0.2-0.1-0.3-0.2-0.5-0.2c-2.9-1.4-5.8-2.9-8.5-4.4c-0.3-0.2-0.7-0.4-1-0.6
		c-41.5-23.6-60.2-62.6-45.9-110.7c2.3-7.9,5.6-16.1,9.8-24.5c2.8-5.7,6.1-11.4,9.8-17.3c0.3-0.5,0.6-1,1-1.5
		c0.6-0.9,1.2-1.8,1.8-2.7c4.9-7.4,9.9-14.5,14.9-21.3c0.7-1,1.5-2,2.2-3c4.8-6.4,9.6-12.6,14.3-18.5c1.3-1.6,2.6-3.1,3.8-4.7
		c2.6-3.1,5.2-6.2,7.8-9.2c0,0,0,0,0,0c0.3-0.3,0.6-0.7,0.9-1c0,0,0,0,0,0c1.6-1.8,3.2-3.6,4.7-5.3c0.2-0.3,0.5-0.6,0.7-0.8
		c1.4-1.5,2.7-3,4.1-4.5l0,0c0.5-0.6,1-1.1,1.5-1.7c1.3-1.4,2.6-2.8,3.9-4.2c0.4-0.4,0.7-0.7,1.1-1.1c0.1-0.2,0.3-0.3,0.4-0.5v0
		c0.9-0.9,1.8-1.8,2.7-2.8c0.6-0.7,1.3-1.3,1.9-1.9c1.3-1.3,2.6-2.6,3.9-3.8c1.5-1.5,3-2.9,4.5-4.3c2.2-2.1,4.3-4.1,6.5-6.1
		c2.1-1.9,4.1-3.8,6.2-5.6c1.6-1.4,3.2-2.9,4.8-4.2c0.5-0.4,1-0.8,1.5-1.3c0.1-0.1,0.2-0.2,0.3-0.2c6.5-5.6,12.9-10.8,19.2-15.6
		c0,0,0,0,0.1,0c0,0,0,0,0,0c39.2-30.1,73.2-46,93.2-56.1c61.2-30.8,155.7-52.3,187.3-1.1c24,38.9,5.6,66.8-7.3,89.4
		c-3.4,5.9-6.4,11.5-8.2,16.8c-0.7,2-1.2,4.1-1.5,6c-0.9,6.9,1,13.4,8,19.8h0c0.4,0.4,0.8,0.7,1.3,1.1c1.1,0.9,2.2,1.8,3.5,2.6
		c2.4,1.7,5.3,3.4,8.5,5.1c1.3,0.7,2.7,1.3,4.1,2C541.5,293.1,546.6,326.7,527.1,363.2z"/>
	<path class="st1" d="M485.4,268.5c0,0-3.8-5-6.4-12.9c-2.6-7.9-4.2-12-4.4-14.2c-0.2-1.5,2.3-2.1,4.8,3c2.5,5.1,4.4,4.4,4.4,1.1
		c0-3.3-2.2-13.8-3.4-18c-1.2-4.2-1.6-10.6,0.8-9.8c2.3,0.8,5.8,15.7,6.7,16.8c0.9,1.1,0.9-18.8,3.1-19.3c2.2-0.5,2.6,5.8,3,13.2
		c0.1,1.5,1,1.4,2.5,1.4c2.5,0.1,3.2,0.7,5.2,3.5c2,2.8,0.9,12.3,0.6,18.8c-0.3,6.5-0.3,16.5-0.3,16.5H485.4z"/>
	<path class="st2" d="M461,346.9c0,0,20.3,10.7,35.7,7.9c16.7-3,15.6-46.6,7-86.9c0,0-14.9-2-19.8,1.3c0,0-1.3,51.8-2.2,53.2
		c-0.9,1.4-15-7.5-15-7.5L461,346.9z"/>
	<path class="st3" d="M475,319.9c-7,12.4-9.6,29-9.6,29s0,0,0,0c0,0,0,0,0,0c0,0,0,0,0,0c0,0,0,0,0,0c0,0,0,0,0,0c0,0-0.1,0-0.1,0
		c-0.1,0-0.1,0-0.2-0.1c-0.3-0.1-0.8-0.2-1.3-0.4c-0.1,0-0.2-0.1-0.4-0.1c-0.3-0.1-0.7-0.2-1.1-0.3c-0.2-0.1-0.4-0.1-0.6-0.2
		c-0.3-0.1-0.6-0.2-0.8-0.3c-0.2-0.1-0.5-0.2-0.7-0.2c-0.4-0.1-0.8-0.3-1.3-0.4c-0.3-0.1-0.5-0.2-0.8-0.2c-0.6-0.2-1.2-0.4-1.8-0.6
		c-0.2,0-0.3-0.1-0.5-0.1c-0.1,0-0.1,0-0.2-0.1c-0.6-0.2-1.3-0.4-2-0.6c-0.1,0-0.1,0-0.2-0.1c-0.3-0.1-0.5-0.2-0.8-0.3
		c-0.2-0.1-0.3-0.1-0.5-0.2c-0.5-0.2-1-0.3-1.5-0.5c-0.3-0.1-0.6-0.2-1-0.3c0,0-0.1,0-0.1,0c-0.2-0.1-0.5-0.2-0.7-0.3
		c-2.4-0.8-4.6-1.7-6.2-2.4c-0.1,0-0.2-0.1-0.3-0.1c-0.1-0.1-0.2-0.1-0.3-0.2c-5.7-2.6-2.6,15.2-1.8,50.6v0c0.1,2.2,0.1,4.5,0.1,6.9
		c0.1,7.6,0.4,14.6,0.9,20.9c0.1,0.7,0.1,1.4,0.2,2c0,0.5,0.1,1,0.1,1.5c0.1,0.8,0.1,1.6,0.2,2.4c0.1,1,0.2,1.9,0.3,2.8
		c0,0.3,0.1,0.6,0.1,0.9c0.4,3.7,0.8,7.1,1.2,10.1c0.1,0.5,0.1,1,0.2,1.5c0.1,0.8,0.2,1.5,0.3,2.3c-2.9,1.7-5.8,3.3-8.8,4.9
		c-12.1,6.6-25.1,12.7-39.2,18.2c-3.7,1.4-7.5,2.9-11.3,4.2c-1.2,0.4-2.5,0.9-3.7,1.3h0c-0.4,0.2-0.9,0.3-1.3,0.4
		c-0.1,0-0.2,0.1-0.3,0.1c-1.3,0.5-2.7,0.9-4.1,1.4c-4.4,1.5-8.9,2.8-13.5,4.2c0,0.1,0,0.2,0,0.2c-0.3,0-0.5,0-0.8,0
		c-8.5-0.1-11.9-0.6-11.9-0.6l0.4-9.3l0.4-7.6l0.3-6.8l2.2-46.4l-1.2-83.8l-0.2-16.5l10.6-3.7l11.8-4.1l0.8-0.3l2.4-0.8l2.8-0.4
		c0,0,0,0,0.1,0L409,294c0,0,2.1,0,5.3,0.1c8.2,0.3,23.7,1.4,31.1,6C455.5,306.2,474.4,319.5,475,319.9
		C475,319.9,475,319.9,475,319.9z"/>
	<path class="st4" d="M361.5,477.9c0,0.1,0,0.2,0,0.2c-0.3,0-0.5,0-0.8,0c-8.5-0.1-11.9-0.6-11.9-0.6l0.4-9.3l0.4-7.6l0.3-6.8
		l2.2-46.4l-1.2-83.8c7.9-11.9,13.4-19,12.6-14.9c-0.3,1.8-0.5,4.1-0.6,6.8c-0.4,16.7,3.7,48.9,1.1,91.5c-1.7,27.1,6.9,53,10.9,66.8
		C370.6,475.1,366.1,476.5,361.5,477.9z"/>
	<path class="st2" d="M414.3,294.1c-10,19.3-48,12.4-48,12.4s-3-1.5-5-3.1c-2.9-2.4-3.5-5.2,11.8-4.1c0.3,0,0.6,0,0.9,0.1
		c26.9,2.1,35-5.3,35-5.3S411.1,293.9,414.3,294.1z"/>
	<linearGradient id="SVGID_2_" gradientUnits="userSpaceOnUse" x1="218.5501" y1="385.3521" x2="218.5501" y2="477.9173">
		<stop  offset="0" style="stop-color:#F5586D"/>
		<stop  offset="1" style="stop-color:#F4875C"/>
	</linearGradient>
	<path class="st5" d="M273.3,412.7c0,0.5-0.8,7.4-2,17.1c-0.7,6-1.6,13-2.5,20.4c-0.3,2.5-0.6,5-1,7.6c-0.1,0.6-0.2,1.3-0.2,1.9
		c-1.7,13.7-3.4,27.2-4.5,35.2c-4.4,0.2-8.8,0.4-13.1,0.5c-3.4,0.1-6.7,0.1-10,0.1c-0.4,0-0.9,0-1.3,0c-12.2-0.1-23.8-0.9-34.8-2.4
		c-0.7-0.1-1.4-0.2-2-0.3c-3.9-0.5-7.7-1.1-11.4-1.8c-0.3-0.1-0.7-0.1-1-0.2c-0.1,0-0.1,0-0.2,0c0,0,0,0-0.1,0c-0.1,0-0.3,0-0.4-0.1
		c-0.2,0-0.3-0.1-0.5-0.1c-0.2,0-0.3-0.1-0.4-0.1c-0.1,0-0.3-0.1-0.4-0.1c-0.4-0.1-0.7-0.1-1.1-0.2c-0.5-0.1-1-0.2-1.5-0.3
		c-0.7-0.1-1.4-0.3-2.1-0.4c-2.7-0.6-5.4-1.2-8-1.9c-3.7-0.9-7.3-2-10.8-3.1c1.8-6.7,5.1-12.5,12-26.4c1.5-3,3.1-6.4,5-10.2
		c2.6-5.5,3.7-11.5,3.7-17.4c0.1-11.4-3.5-22.7-6.4-29.8v0c-2-4.8-3.6-7.8-3.6-7.8l6.9-50.4l1.1-8.3l0.4-2.8l21.3-2.1c0,0,0,0,0,0
		l11.7-1.2l23.3-2.3l17.4-1.7l11.2,21.3c0,0,0.6,6.9,1.4,16.3c0.7,8.5,1.6,19,2.4,28.4C272.5,402,273.3,412,273.3,412.7z"/>
	<path class="st6" d="M237.9,436.9c-0.7,0.5-28.3,19.6-40.2,23.4c-8.4,2.6-14.2,18.1-15,29.2c-2.7-0.6-5.4-1.2-8-1.9
		c-3.7-0.9-7.3-2-10.8-3.1c1.8-6.7,5.1-12.5,12-26.4c1.5-3,3.1-6.4,5-10.2c2.6-5.5,3.7-11.5,3.7-17.4c0.1-11.4-3.5-22.7-6.4-29.8v0
		c0-0.3,2.1-15.6,5.1-21.7c1.1-2.1,2.3-3.1,3.5-1.9c4.7,4.4,12.3,33,10.3,51.1c-0.1,0.9-0.2,1.8-0.4,2.7
		C193.6,448.3,236.5,437.3,237.9,436.9C237.9,436.9,237.9,436.9,237.9,436.9z"/>
	<path class="st2" d="M248.8,258.3l-3.3,10.1c0,0-1.4,3.9-4.6,9.4c-5.6,9.5-16.7,23.8-36.1,31.9c-30.7,12.8-39.1,4.2-57.3,11.9
		c-18.2,7.7-9.6,39.6-48.7,39.9c-32.3,0.2-44.5-22.9-33.4-40.6c2.4-3.8,5.8-7.3,10.3-10.3c13-8.6,20.3-14.8,25.1-21.1
		c4.6-6.2,6.8-12.4,9.2-21.1c4.9-17.5,22.8-29.8,45.7-29.1c22.9,0.7,24.9,4.2,48-6.1c4.7-2.1,8.9-3.4,12.9-4.2
		c15.6-3,25.6,3.2,30.5,10.3C253.2,248.2,248.8,258.3,248.8,258.3z"/>
	<linearGradient id="SVGID_3_" gradientUnits="userSpaceOnUse" x1="151.2877" y1="303.1765" x2="151.2877" y2="386.0997">
		<stop  offset="0" style="stop-color:#F5586D"/>
		<stop  offset="1" style="stop-color:#F4875C"/>
	</linearGradient>
	<path class="st7" d="M240.9,277.8c-5.6,9.5-16.7,23.8-36.1,31.9c-30.7,12.8-39.1,4.2-57.3,11.9c-18.2,7.7-9.6,39.6-48.7,39.9
		c-32.3,0.2-44.5-22.9-33.4-40.6c5.3,14.4,35.7,25.3,56.6-0.7c24.6-30.5,45.4-9.8,61.6-29.3c16.2-19.5,13.2-29.5,25.1-34.4
		c11.9-5,12,0.2,26.4,0C240,256.4,241.8,265.4,240.9,277.8z"/>
	<path class="st1" d="M440,187.5c0,0-3.3-7.4-3.2-14.1c0.1-6.7,0.6-14.5,0.8-17.8c0.2-3.3,3.2-0.3,3.8,3.7c0.6,4,1.6,8.5,2.5,7.8
		c0.9-0.7,3.3-9.7,4-11.9c0.7-2.2-0.1-10.9,0-13.3c0.1-2.3,2.7-2.9,3.5-0.8c0,0-0.3-4,1.6-4.2c1.9-0.2,3.1,3.8,3.1,3.8
		s-0.2-2,1.7-1.4c2.2,0.6,2.1,10.3,2.4,10.8c0.3,0.5,1-6.8,2.8-6.6c1.9,0.3,3.2,27.8-8.4,46.5l-6.8,2.3L440,187.5z"/>
	<linearGradient id="SVGID_4_" gradientUnits="userSpaceOnUse" x1="249.963" y1="471.8214" x2="361.498" y2="471.8214">
		<stop  offset="0" style="stop-color:#A15BB1"/>
		<stop  offset="1" style="stop-color:#6C388D"/>
	</linearGradient>
	<path class="st8" d="M361.5,478.1c-0.3,0-0.5,0-0.8,0c-1.1,0.3-2.2,0.6-3.3,0.9c-5.6,1.6-11.4,3-17.3,4.4c-1.4,0.3-2.8,0.7-4.2,1
		c-1.2,0.3-2.4,0.5-3.7,0.8c-19.5,4.3-38.3,7.1-56.2,8.7c-0.1,0-0.3,0-0.4,0c-4.2,0.4-8.4,0.7-12.6,0.9c-4.4,0.2-8.8,0.4-13.1,0.5
		c2.4-20.5,4.7-38.4,5.3-43.1c0.1-0.8,0.2-1.2,0.2-1.2l0.8-0.4c0.3,0,0.6,0,1,0c0.1,0,0.3,0,0.4,0c0.5,0,1,0,1.6-0.1
		c0.2,0,0.5,0,0.7,0c0.9,0,1.9-0.1,2.9-0.1c0.3,0,0.6,0,0.9,0c0,0,0.1,0,0.1,0c0.4,0,0.7,0,1.1,0c0.3,0,0.6,0,0.8,0
		c0.3,0,0.6,0,0.9,0c0.7,0,1.4-0.1,2.1-0.1c0.4,0,0.8,0,1.2,0c0.5,0,1.1,0,1.6-0.1c0.1,0,0.2,0,0.2,0c0.3,0,0.7,0,1.1,0
		c0.4,0,0.9,0,1.3,0c0.4,0,0.9,0,1.3,0c0.5,0,1,0,1.6-0.1c0.5,0,1,0,1.5-0.1c0.3,0,0.7,0,1,0c0,0,0,0,0.1,0h0c0.5,0,0.9,0,1.4,0
		c0.7,0,1.4-0.1,2.2-0.1c0.2,0,0.5,0,0.7,0c5.2-0.2,10.6-0.4,15.8-0.5c0.3,0,0.7,0,1,0c1.5-0.1,3-0.1,4.4-0.1c0.5,0,0.9,0,1.4,0
		c0.9,0,1.8-0.1,2.7-0.1c0.6,0,1.1,0,1.7-0.1c1,0,1.9-0.1,2.9-0.1c0.4,0,0.8,0,1.2,0c0.6,0,1.2,0,1.8-0.1c0.4,0,0.8,0,1.1,0
		c0.3,0,0.6,0,1,0c0.1,0,0.2,0,0.2,0c0.2,0,0.5,0,0.7,0c0.5,0,1,0,1.4,0c0.6,0,1.2,0,1.8,0c0.6,0,1.1,0,1.6,0c0.4,0,0.7,0,1,0
		c0.1,0,0.2,0,0.3,0c0.2,0,0.3,0,0.5,0c0.2,0,0.3,0,0.5,0c0.2,0,0.3,0,0.4,0c0.1,0,0.3,0,0.4,0c0.3,0,0.5,0,0.7,0c0.8,0,1.5,0,1.8,0
		c0.1,0,0.1,0,0.1,0c0.1,0,0.1,0,0.2,0c0.7,0.1,6.8,1.3,14.2,2.9c1,0.5,2,1,3,1.5c0.2,0.1,0.5,0.2,0.7,0.4c0.5,0.2,0.9,0.5,1.3,0.7
		c0.4,0.2,0.7,0.4,1.1,0.6c0.2,0.1,0.4,0.2,0.5,0.3c0.5,0.2,0.9,0.5,1.4,0.7c0.4,0.2,0.7,0.4,1,0.5c0.9,0.5,1.8,0.9,2.5,1.3
		c0.2,0.1,0.3,0.2,0.5,0.3c1,0.5,1.7,0.9,2.3,1.2c0.2,0.1,0.4,0.2,0.5,0.3c0.4,0.2,0.6,0.3,0.6,0.3s0,0,0,0.1c0,0,0,0.1,0,0.2
		c0,0.2,0,0.6,0.1,1.1c0,0.3,0,0.7,0.1,1.2c0,0.1,0,0.2,0,0.4c0,0.6,0.1,1.3,0.1,2.1c0,0.2,0,0.5,0,0.7c0,0.2,0,0.5,0,0.7
		c0,0.8,0.1,1.7,0.1,2.6c0,0.3,0,0.6,0,0.9c0,0.7,0.1,1.5,0.1,2.3c0.1,2,0.2,4.2,0.3,6.5C361.5,477.9,361.5,478,361.5,478.1z"/>
	<linearGradient id="SVGID_5_" gradientUnits="userSpaceOnUse" x1="307.5466" y1="444.2605" x2="309.1737" y2="486.5645">
		<stop  offset="0" style="stop-color:#7A4385"/>
		<stop  offset="1" style="stop-color:#402154"/>
	</linearGradient>
	<path class="st9" d="M361.2,471.4c-1.2-0.1-2.6-0.5-4.1-1c-13.7-5.3-37.9-4.4-59.7-3.1c-17.9,1-36.2-10.7-42.1-15
		c0.1-0.8,0.2-1.2,0.2-1.2l0.8-0.4c14-0.5,72.8-2.7,74.4-2.4c0.7,0.1,6.8,1.3,14.2,2.9c8.2,4.1,15.6,8,15.6,8
		S360.8,463.9,361.2,471.4z"/>
	<linearGradient id="SVGID_6_" gradientUnits="userSpaceOnUse" x1="305.6622" y1="143.5436" x2="323.4583" y2="606.2438">
		<stop  offset="0" style="stop-color:#6AEBD5"/>
		<stop  offset="1" style="stop-color:#2F95AE"/>
	</linearGradient>
	<path class="st10" d="M456.6,189.2c0,0-6.5,80.4-12.7,91.9c-6.2,11.5-54.3,12.3-69.8,18.2c-15.5,5.9-14.1,38.6-13.5,84
		c0.6,45.4,4.5,76.4,3.6,77c-0.9,0.6-29.7-0.2-65.1,0.7c-1.3,0-2.5,0.1-3.7,0.1c0,0,0,0,0,0c-32.3,0.1-39.8-10-39.8-10
		c2.2-24.6,5.6-98.9-8.1-115c-2.2-2.6-5-4.3-8.3-5.3c0,0,0,0,0,0c-17.4-5.4-47.6,7.2-63.8,2.2c-19.3-5.9-9.3-19.3-9.3-19.3
		c26.4-23,49.6-22.8,72.1-26c18.5-2.6,43.6-6.1,43.6-6.1l46.9,0.7c0,0,4.6-4.4,18-8.4c13.4-4,60.9-11.2,71.2-14.7
		c10.3-3.4,21.1-72.4,21.1-72.4L456.6,189.2z"/>
	<linearGradient id="SVGID_7_" gradientUnits="userSpaceOnUse" x1="148.2935" y1="461.7719" x2="303.1135" y2="375.9678">
		<stop  offset="0" style="stop-color:#6AEBD5"/>
		<stop  offset="1" style="stop-color:#2F95AE"/>
	</linearGradient>
	<path class="st11" d="M295.2,461.1c-32.3,0.1-39.8-10-39.8-10c2.2-24.6,5.6-98.9-8.1-115c-2.2-2.6-5-4.3-8.3-5.3
		c0.7,0.1,24.7,5,26.6,30.7C267.7,387.6,262.6,452.6,295.2,461.1z"/>
	<path class="st12" d="M262.1,368"/>
	<path class="st1" d="M257.2,362.8l5.7,0c0,0,5.4,0.1,9-2.9c3.6-3,7.9-13.5,9.8-13.6c1.9-0.2,2.2,4.3,0.8,8.5
		c-1.4,4.3-5.2,11.2-3.3,12.2c1.8,1,11.7,5.4,12.5,6.7c0.8,1.3-0.7,4.3-2.3,5.1c-1.6,0.8,0.4,2.8-3.1,5.7c-3.5,3-1.5,3.9-5.4,5.3
		c-3.9,1.4-3.4,2.6-7.3,1.2s-22-13.9-22-13.9L257.2,362.8z"/>
	<linearGradient id="SVGID_8_" gradientUnits="userSpaceOnUse" x1="190.1495" y1="390.1435" x2="190.1495" y2="489.9372">
		<stop  offset="0" style="stop-color:#F5586D"/>
		<stop  offset="1" style="stop-color:#F4875C"/>
	</linearGradient>
	<path class="st13" d="M182.9,331.3c0,0-28.2,2.8-35.7,51.4c-7.5,48.6-5.1,69.8-1.4,73.6c3.7,3.7,14.5,5.6,28,2.3
		c13.5-3.3,63.2-21.2,64.1-21.7c0.9-0.5-2.8-15.6-2.8-15.6s-52.9,9.4-61.1,11.2c-2.8,0.6-1.4-4.3-0.2-11.1c2-11.7,6.4-30,9.1-40.9
		C187,363.3,182.9,331.3,182.9,331.3z"/>
	<path class="st1" d="M240,291.9l-0.6,25.2l-0.3,13.6c0,0-2.1,4.3-11.7,5.7c-9.6,1.4-23.2-7.3-23.2-7.3c1.9-7.9,3.5-17.9,4.6-26.9
		c0.7-5.1,1.2-9.8,1.6-13.6c0.5-5.1,0.8-8.5,0.8-8.5l15.6,6.3L240,291.9z"/>
	<linearGradient id="SVGID_9_" gradientUnits="userSpaceOnUse" x1="228.5546" y1="176.6486" x2="222.4924" y2="354.7851">
		<stop  offset="0" style="stop-color:#E88484"/>
		<stop  offset="8.964810e-02" style="stop-color:#E9898A"/>
		<stop  offset="1" style="stop-color:#F8C1C6"/>
	</linearGradient>
	<path class="st14" d="M240,291.9l-0.6,25.2c-16.9,2-27.1-9.7-30.6-14.8c0.7-5.1,1.2-9.8,1.6-13.6l16.4-2.2L240,291.9z"/>
	<path class="st1" d="M235.1,421.3c0,0,7.5-4.3,10.4-4.9c3-0.6,7.8-0.6,9.2,0.8c1.4,1.4,3.4-0.2,3.6,4.1c0.2,4.3,1,11.6-1.7,13
		c-2.7,1.4-18.7,2.6-18.7,2.6L235.1,421.3z"/>
	<linearGradient id="SVGID_10_" gradientUnits="userSpaceOnUse" x1="360.5804" y1="235.2826" x2="422.4122" y2="235.2826">
		<stop  offset="0" style="stop-color:#A15BB1"/>
		<stop  offset="1" style="stop-color:#6C388D"/>
	</linearGradient>
	<path class="st15" d="M361.6,221c2.1,4.8,6.9,7.2,6.9,7.2l3.2,13c0,0,0.1,0.2,0.2,0.4c1.5,4,14,33.9,35.1,24.4
		c22.5-10.1,9.9-27.6,13.9-35.3c1.5-2.9,1.8-6.2,1-9.3c-1.4-5.1-5.9-9.7-13.2-10.9c-7.9-1.3-6.1,2.2-19.1-4.6
		c-10.5-5.5-21-4.1-26.1,1.9c-1.2,1.4-2,3-2.6,4.9C360.2,216.1,360.6,218.8,361.6,221z"/>
	<path class="st1" d="M374,299.3c0,0-0.7,1.6,15.9,0c16.5-1.6,19.2-5.3,19.2-5.3c-5.6-3.8-5.8-19.3-5.7-26.9c0-5.5,0.7-9.8,0.7-9.8
		s-12.3-10.3-20.3-9.4c-1.9,0.2-3.6,1.1-4.9,3c-1.4,2.1-2.1,5.5-1.9,10.5c0.3,8.1-0.2,13.8-1.2,17.8
		C373.5,288.9,374,299.3,374,299.3z"/>
	
		<linearGradient id="SVGID_11_" gradientUnits="userSpaceOnUse" x1="12395.2188" y1="-204.2056" x2="12400.5459" y2="-166.1885" gradientTransform="matrix(-0.9971 7.550000e-02 7.550000e-02 0.9971 12764.6777 -482.8351)">
		<stop  offset="0" style="stop-color:#E88484"/>
		<stop  offset="8.964810e-02" style="stop-color:#E9898A"/>
		<stop  offset="1" style="stop-color:#F8C1C6"/>
	</linearGradient>
	<path class="st16" d="M374.4,284.8c11.2,1.7,23.1-8.1,27.5-12.1c0-5.5,0.7-9.8,0.7-9.8s-12.3-10.3-20.3-9.4c-1.4,0.8-3.1,1.8-4.9,3
		c-1.4,2.1-2.1,5.5-1.9,10.5C375.9,275.2,375.4,280.8,374.4,284.8z"/>
	
		<linearGradient id="SVGID_12_" gradientUnits="userSpaceOnUse" x1="11300.0146" y1="154.121" x2="11290.4463" y2="189.4697" gradientTransform="matrix(-0.9996 2.690000e-02 2.690000e-02 0.9996 11665.0361 -253.9023)">
		<stop  offset="0" style="stop-color:#7A4385"/>
		<stop  offset="1" style="stop-color:#402154"/>
	</linearGradient>
	<path class="st17" d="M361.6,221c2.1,4.8,6.9,7.2,6.9,7.2l3.2,13c0,0,0.1,0.2,0.2,0.4c13.7-1.4,26.6-3.7,26.6-3.7s5.6-11.3-10.8-11
		C374,227.2,366.1,226.5,361.6,221z"/>
	<path class="st1" d="M368.5,228.3c0,0-6.4,41.8,8.7,46.7c13.5,4.4,25.7-12.3,26.9-13.3c1.2-0.9,3.3-2.5,4.6-5.6
		c1.3-3.1,1.9-7.4-0.2-8.5c-2.2-1.2-5.6-0.8-7,1.3c-1.3,2-3.3,1.3-3.5-4.5c-0.2-5.8,2.8-10.1-3-10.6
		C389.2,233.3,373,232,368.5,228.3z"/>
	
		<linearGradient id="SVGID_13_" gradientUnits="userSpaceOnUse" x1="11252.2227" y1="162.76" x2="11310.1982" y2="162.76" gradientTransform="matrix(-0.9996 2.690000e-02 2.690000e-02 0.9996 11665.0361 -253.9023)">
		<stop  offset="0" style="stop-color:#C8C0E9"/>
		<stop  offset="1" style="stop-color:#FAFAFA"/>
	</linearGradient>
	<path class="st18" d="M363.6,208.1c3.1-1.9,8.5-2.8,17.8,0.9c19.1,7.6,31.4-1.1,40.6,12.6c-1.4-5.1-5.9-9.7-13.2-10.9
		c-7.9-1.3-6.1,2.2-19.1-4.6C379.1,200.6,368.6,202,363.6,208.1z"/>
	<linearGradient id="SVGID_14_" gradientUnits="userSpaceOnUse" x1="204.5089" y1="147.6406" x2="222.2292" y2="608.3701">
		<stop  offset="0" style="stop-color:#6AEBD5"/>
		<stop  offset="1" style="stop-color:#2F95AE"/>
	</linearGradient>
	<path class="st19" d="M165.9,313.7c0,0-10.6,9.2,11.3,25.8c21.9,16.6,75.2,39.6,75.2,39.6l8.1-16.2c0,0-31.6-26-40.2-31.6
		c-8.6-5.6-15.2-13.5-22.8-16.3C189.8,312.2,165.9,313.7,165.9,313.7z"/>
	<linearGradient id="SVGID_15_" gradientUnits="userSpaceOnUse" x1="265.6468" y1="217.7343" x2="340.1805" y2="217.7343">
		<stop  offset="0" style="stop-color:#7A4385"/>
		<stop  offset="1" style="stop-color:#402154"/>
	</linearGradient>
	<path class="st20" d="M304.9,249.2c0,0-10.5,3.9-16.9,2.4c-6.4-1.6-11.8-7.2-12.5-12c-1.2-8.3-5.5-6.3-8.6-13.3
		c-4.2-9.4,3.6-14.6,2.7-27.5c-0.9-12.9,14-19.9,21.3-18.5c7.3,1.4,11.5,3,18.9,1.5c8.3-1.7,20.5,0.9,24.2,10.4
		c3.7,9.5,1,15.4,4.5,23.5c2.9,6.7,1.7,21.1-3.1,24.4c-12.2,8.1-9.6,15.5-23.6,15.2C294,254.9,304.9,249.2,304.9,249.2z"/>
	<path class="st1" d="M328.5,282.3c-10.3,7.4-19.6,8.4-22.7,8.6v0c0,0-0.3,0-0.7,0c-0.3,0-0.4,0-0.4,0v0c-3.3-0.1-13.6-1.1-24-8.6
		c0,0,7.3-8.9,9.4-22.7c0.4-2.8,0.7-5.8,0.6-9c-0.5-17.1,12.4-4.5,14.8-2.1c2.9-3.3,13.6-14.2,13.1,2.1c-0.1,3.6,0.2,7,0.8,10.1
		C321.6,273.9,328.5,282.3,328.5,282.3z"/>
	<linearGradient id="SVGID_16_" gradientUnits="userSpaceOnUse" x1="308.263" y1="154.1639" x2="302.2007" y2="332.3005">
		<stop  offset="0" style="stop-color:#E88484"/>
		<stop  offset="8.964810e-02" style="stop-color:#E9898A"/>
		<stop  offset="1" style="stop-color:#F8C1C6"/>
	</linearGradient>
	<path class="st21" d="M319.3,260.8c-13.1,13.9-25.3,3.1-29.3-1.1c0.4-2.8,0.7-5.8,0.6-9c-0.5-17.1,12.4-4.5,14.8-2.1
		c2.9-3.3,13.6-14.2,13.1,2.1C318.4,254.3,318.7,257.6,319.3,260.8z"/>
	<path class="st1" d="M206.3,278.8c-4.3-2.4-8.2,6.8-3.7,11.9c4.4,5.1,5.6,1.2,10.5,7.9c4.9,6.8,17,12.4,28,9.1
		c11-3.3,8.4-47.5,3.5-54.2c0,0-2.8,4.5-12.8,3.4c-10-1.2-18.4-0.2-18.2,7.7C213.8,272.5,212.6,282.3,206.3,278.8z"/>
	<path class="st1" d="M283.5,215v22.3c0,3,0.9,5.9,2.6,8.3l6.4,9.4c2.8,4,7.3,6.4,12.2,6.4h0.2l0,0c4.8,0,9.3-2.3,12.1-6.3l6.6-9.5
		c1.7-2.5,2.7-5.4,2.7-8.5V215c0-11.8-9.6-21.4-21.4-21.4l0,0C293.1,193.6,283.5,203.2,283.5,215z"/>
	<linearGradient id="SVGID_17_" gradientUnits="userSpaceOnUse" x1="270.51" y1="201.6462" x2="331.0373" y2="201.6462">
		<stop  offset="0" style="stop-color:#7A4385"/>
		<stop  offset="1" style="stop-color:#402154"/>
	</linearGradient>
	<path class="st22" d="M283.5,218.5c0,0,0.2-1.3,1.7-8.3c0.9-4.3,4.6-11.4,13-8.5c8.4,3,12,1.9,15.9,0.8c3.9-1.1,12.3,4.8,12.3,13.4
		c0,8.5,9.5-15.1,1.6-20.4c-7.9-5.3-26.6-13.7-33.7-9.5c-7.1,4.2-24.1,16.6-23.7,18.7C271,206.6,283.5,218.5,283.5,218.5z"/>
	<path class="st23" d="M216.6,229.1c-11,5.8-20.1,16.7-37.7,20.3c-28.9,5.9-42-7.4-61.2,22.1c-7,10.8-12.4,15.6-16.9,18.1
		c4.6-6.2,6.8-12.4,9.2-21.1c4.9-17.5,22.8-29.8,45.7-29.1c22.9,0.7,24.9,4.2,48-6.1C208.4,231.2,212.7,229.8,216.6,229.1z"/>
	<path class="st4" d="M443.6,443.2c-2.9,1.7-5.8,3.3-8.8,4.9c2.6-8.5,5.1-18.5,6.3-28.6c0.1,0.7,0.1,1.4,0.2,2c0,0.5,0.1,1,0.1,1.5
		c0.1,0.8,0.1,1.6,0.2,2.4c0.1,1,0.2,1.9,0.3,2.8c0,0.3,0.1,0.6,0.1,0.9c0.4,3.7,0.8,7.1,1.2,10.1c0.1,0.5,0.1,1,0.2,1.5
		C443.4,441.7,443.5,442.4,443.6,443.2z"/>
	<path class="st4" d="M440.1,391.7c-8-32.2-15.7-54.5-6.9-60.4c8.9-5.8,32.1,17.7,32.1,17.7s-17.4-5.2-23.4-8
		C436.3,338.4,439.4,356.3,440.1,391.7z"/>
	<path class="st2" d="M389.9,158.3c-5,1-6.4,2.4-7.3,7.3c-0.1,0.5-0.8,0.5-0.9,0c-1-5-2.4-6.4-7.3-7.3c-0.5-0.1-0.5-0.8,0-0.9
		c5-1,6.4-2.4,7.3-7.3c0.1-0.5,0.8-0.5,0.9,0c1,5,2.4,6.4,7.3,7.3C390.4,157.5,390.4,158.2,389.9,158.3z"/>
	<path class="st2" d="M317.8,133.6c-5,1-6.4,2.4-7.3,7.3c-0.1,0.5-0.8,0.5-0.9,0c-1-5-2.4-6.4-7.3-7.3c-0.5-0.1-0.5-0.8,0-0.9
		c5-1,6.4-2.4,7.3-7.3c0.1-0.5,0.8-0.5,0.9,0c1,5,2.4,6.4,7.3,7.3C318.2,132.8,318.2,133.5,317.8,133.6z"/>
	<path class="st2" d="M248.9,187.3c-5,1-6.4,2.4-7.3,7.3c-0.1,0.5-0.8,0.5-0.9,0c-1-5-2.4-6.4-7.3-7.3c-0.5-0.1-0.5-0.8,0-0.9
		c5-1,6.4-2.4,7.3-7.3c0.1-0.5,0.8-0.5,0.9,0c1,5,2.4,6.4,7.3,7.3C249.4,186.5,249.4,187.2,248.9,187.3z"/>
</g>
</svg>
