<svg version="1.1" id="Layer_1" xmlns="http://www.w3.org/2000/svg" x="0" y="0" viewBox="0 0 600 600" xml:space="preserve"><style>.st1{fill:#f9c2c5}.st2{fill:#fff}.st10{opacity:.72}.st11{fill:#f5dfdf}.st19{fill:#d1ccec}.st20{fill:#beb7e1}</style><linearGradient id="SVGID_1_" gradientUnits="userSpaceOnUse" x1="137.093" y1="747.112" x2="314.62" y2="313.947"><stop offset="0" stop-color="#c8c0e9"/><stop offset="1" stop-color="#fafafa"/></linearGradient><path d="M471.1 356.9c29.8 30.1 5.3 82.1-58.8 117.2-15.3 8.4-32.8 15.8-52.4 21.7-2.9.9-5.8 1.7-8.8 2.5l-.9.3c-.2.1-.4.1-.6.2-10 2.7-20.5 4.9-31.4 6.7-10 1.7-20.3 2.9-30.8 3.6-6.9.5-14 .8-21.1 1-6.3.1-12.6.1-18.9-.1-2.8-.1-7-.3-12.5-.7-2.7-.2-5.6-.5-8.8-.8-2.4-.2-4.9-.5-7.5-.8-21.6-2.7-50.7-8.2-76.5-19.8-2-.9-4-1.8-5.9-2.8-8.5-4.2-16.6-9.2-23.7-14.9-19.5-15.7-32.3-37.6-29.7-68.1C89.9 318 175.4 225.6 289 183.7c84.9-31.3 208.5-63.8 227 2.4 22.1 79.1-94.9 120.3-44.9 170.8z" fill="url(#SVGID_1_)"/><path class="st1" d="M300.2 174c-.4-3.6 44.9-113.2 59.9-123 15-9.8 61.5-16.3-44.4 205.5L300.2 174z"/><path class="st2" d="M90 373.4h92.7s11.9-.2 12-8.7c.1-8.4-12.7-9.5-22.4-7.1-9.6 2.4-6.8-14.2-20.1-21-17.2-8.8-28.6 1.7-31.6 7.7s-5.4 14-15.7 9.7c-11.6-4.8-22.3 5-23.6 13.2-.7 4.5 1.9 6.2 8.7 6.2zm406.3-141.5h-44.7s-8.6.5-9.5-4.4c-.9-4.9 4.4-7.7 10.1-6.3 5.8 1.4 4.3-6.9 14.1-10.4s13.9 4.4 15.8 8.5c2 4.1 5.7-.4 13.5 2.2s6.2 10.4.7 10.4z"/><linearGradient id="SVGID_2_" gradientUnits="userSpaceOnUse" x1="348.927" y1="499.944" x2="350.528" y2="499.944"><stop offset="0" stop-color="#6aebd5"/><stop offset="1" stop-color="#2f95ae"/></linearGradient><path d="M349.9 495.6l.6 1.5c-.1.6-.3 1.1-.4 1.6-.8 3.4-1.2 5.4-1.2 5.7l.6-5.5.4-3.3z" fill="url(#SVGID_2_)"/><linearGradient id="SVGID_3_" gradientUnits="userSpaceOnUse" x1="350.528" y1="438.551" x2="446.645" y2="438.551"><stop offset="0" stop-color="#6aebd5"/><stop offset="1" stop-color="#2f95ae"/></linearGradient><path d="M403.3 430.4c1 1.4 15.5.7 23.1-.7 7.6-1.4 11.9-3.6 10.7-1.4-4.7 8.8-1.1 13.8-6.9 23.4-5.2 8.6-8.6 10-17.2 9.7-8.6-.3-11.4.7-9 3.1 2.4 2.4 14.5 1.7 16.9 1.7 1 0-3 1.7-6.4 5.3-.9.9-1.6 1.8-2.2 2.7-15.3 8.4-32.8 15.8-52.4 21.7-2.9.9-5.8 1.7-8.8 2.5l-.6-1.3c1.8-7.2 5.1-18.9 10.9-32.1 6.3-14.5 15.3-30.7 28.1-44.6 32.1-34.8 55.5-42.8 56.9-41.5 1.4 1.2-4 6.6-4 15.9s.2 20.4-8.8 25.6c-8.9 5.2-31.3 8.6-30.3 10z" fill="url(#SVGID_3_)"/><linearGradient id="SVGID_4_" gradientUnits="userSpaceOnUse" x1="166.787" y1="450.907" x2="266.289" y2="450.907"><stop offset="0" stop-color="#6aebd5"/><stop offset="1" stop-color="#2f95ae"/></linearGradient><path d="M266.3 510.1c-6.3.1-12.6.1-18.9-.1-2.8-.1-7-.3-12.5-.7-2.7-.2-5.6-.5-8.8-.8-.8.2-1.6.4-2.5.7h-.2c-1.7-.4-3.4-.9-4.8-1.6-1.1-.5-2.1-1.1-3-1.8-9.5-7.5-10.2-11.5-15.1-16.8-3.5-3.8-7.8-5.5-6.7-5.5 1.4 0 5.7.2 9.8 0 3.5-.2 6.8-.7 8-1.8 2.5-2.5-.4-3.6-9.4-3.3-3.9.2-6.8 0-9.2-1-.6-.3-1.3-.6-1.9-1-2.4-1.5-4.5-4.1-7-8.2-6.1-10.1-2.3-15.3-7.3-24.6-1.2-2.3 3.3 0 11.2 1.5 8 1.4 23.2 2.2 24.3.7 1.1-1.5-22.5-5.1-31.9-10.5-9.4-5.5-9.2-17.2-9.2-27s-5.6-15.4-4.2-16.7c1.5-1.3 26.1 7.1 59.8 43.7 4.5 4.9 8.6 10 12.2 15.3 15.1 21.7 23.3 45.2 27.3 59.5z" fill="url(#SVGID_4_)"/><linearGradient id="SVGID_5_" gradientUnits="userSpaceOnUse" x1="82.439" y1="491.378" x2="234.951" y2="491.378"><stop offset="0" stop-color="#6aebd5"/><stop offset="1" stop-color="#2f95ae"/></linearGradient><path d="M235 509.4c-2.7-.2-5.6-.5-8.8-.8-.8-.1-1.6.4-2.5.7h-.2c-11.9 3.1-34.8 7.9-38 7.6-4.2-.5 5.4-11.3 4.2-13.7-1.2-2.4-9.3 8.4-15 11-5.7 2.7-15.2 1.8-27.8-4.8-12.6-6.7-17.3-1.5-20.1-3.6-2.8-2.2 1-6.7 6.4-11 2.6-2.1 6.3-4.5 9.1-6.8 3-2.5 5-4.9 3.6-6.8-1.8-2.4-5.3.5-9.5 4-2.1 1.8-4.4 3.7-6.8 5.1-7.1 4.3-16.4 8.1-23 5.3-6.5-2.8-16.2-13.5-20.8-15.6-4.5-2.1-5.4-3.8 4.8-5 4.3-.5 12.1-2.7 22-4.8 13.9-3 31.9-5.8 49.7-3.6 9.4 1.2 19.5 5.1 28.9 9.9.6.3 1.2.6 1.9 1 3.7 1.9 7.3 4 10.7 6.1 15.2 9.4 26.6 19 26.6 19s3.6 4.1 4.6 6.8z" fill="url(#SVGID_5_)"/><linearGradient id="SVGID_6_" gradientUnits="userSpaceOnUse" x1="658.495" y1="274.807" x2="81.493" y2="173.346"><stop offset="0" stop-color="#e88484"/><stop offset="1" stop-color="#f8c1c6"/></linearGradient><path d="M398.8 171.3c12.9-.2 31.3 0 31.3 0L419 214.4l-12 17.9 20.7 10.7-56 44.8s-17.1-82.3-15.4-84.2c1.9-1.9 42.5-32.3 42.5-32.3z" fill="url(#SVGID_6_)"/><path class="st1" d="M373.9 402.4c-1.9.8-3.5 2.2-4.9 4-7.4 9.8-7.4 32.9-7.6 58.5-.1 7.1-.1 14.3-.4 21.5-.1 3.2-.5 6.3-1.1 9.4-2.9.9-5.8 1.7-8.8 2.5l-.9.3c-.2.1-.4.1-.6.2-10 2.7-20.5 4.9-31.4 6.7-10 1.7-20.3 2.9-30.8 3.6-6.9.5-14 .8-21.1 1-6.3.1-12.6.1-18.9-.1-2.4-17.3-5.7-41.9-8.4-59.3-1.5-9.8-2.8-17.2-3.5-19.8-1.4-4.6-4.2-11-7.5-17.8-4.1-8.5-9-17.6-12.5-24.1-2.3-4.2-4-7.3-4.7-8.5-.2-.3-.3-.5-.3-.5.5 0 5.1.3 12.5.8 3.4.2 7.4.5 11.9.8 7.3.5 15.9 1.1 25.2 1.9 6.2.5 12.8 1 19.4 1.6 51 4.3 109.1 10.8 94.4 17.3z"/><path class="st1" d="M250.8 421c-3.7.8-8.6-.9-15.2-6.9-3.4-3.1-7.2-7.2-11.5-12.7-40.2-51.2-22.3-104-27.9-139.3-5.7-35.3-13.6-61.1-7-64.8 1.7-.9 3.3-1.4 4.8-1.6 8.5-1.1 15.4 8 21.2 21.2 6.1 13.9 10.9 32.5 15 48.6 2.3 9.2 4.3 17.6 6.2 23.9 1.6 5.5 3.5 12.5 5.5 20.1 1.8 6.9 3.7 14.4 5.6 21.9 7.1 28.3 13.7 57 13.7 57s1.5 29.9-10.4 32.6z"/><linearGradient id="SVGID_7_" gradientUnits="userSpaceOnUse" x1="631.191" y1="468.017" x2="44.514" y2="364.855"><stop offset="0" stop-color="#e88484"/><stop offset="1" stop-color="#f8c1c6"/></linearGradient><path d="M277.3 402.4s9.9 10 16 39.1c0 0 12.5-44.6 5-61.5-7.6-16.9-21 22.4-21 22.4z" fill="url(#SVGID_7_)"/><path d="M335 194.6c-.3-2.8 35.9-90.4 47.8-98.2 12-7.8 49.1-13-35.4 164.1L335 194.6z" fill="#f0bebe"/><g class="st10"><path class="st11" d="M190.2 229.5s5.3-8.7-1-32.1c0-.1-7.7-3.3 1 32.1z"/></g><linearGradient id="SVGID_8_" gradientUnits="userSpaceOnUse" x1="234.95" y1="246.81" x2="410.336" y2="246.81"><stop offset="0" stop-color="#7a4385"/><stop offset="1" stop-color="#402154"/></linearGradient><path d="M410.3 107.7V386c0 11.3-9.2 20.5-20.5 20.5H255.4c-11.3 0-20.5-9.2-20.5-20.5V107.7c0-11.3 9.2-20.5 20.5-20.5h134.5c11.3 0 20.4 9.2 20.4 20.5z" fill="url(#SVGID_8_)"/><linearGradient id="SVGID_9_" gradientUnits="userSpaceOnUse" x1="224.434" y1="502.456" x2="395.593" y2="56.913"><stop offset="0" stop-color="#c8c0e9"/><stop offset="1" stop-color="#fafafa"/></linearGradient><path d="M243 386.6V107.1c0-6.5 5.3-11.8 11.8-11.8h135.7c6.5 0 11.8 5.3 11.8 11.8v279.5c0 6.5-5.3 11.8-11.8 11.8H254.8c-6.5 0-11.8-5.3-11.8-11.8z" fill="url(#SVGID_9_)"/><path class="st2" d="M345.1 372.5h-7.9c-.6 0-1.1-.5-1.1-1.1v-39.6c0-.6.5-1.1 1.1-1.1h7.9c.6 0 1.1.5 1.1 1.1v39.6c-.1.7-.6 1.1-1.1 1.1zm-19.5 0h-7.9c-.6 0-1.1-.5-1.1-1.1v-39.6c0-.6.5-1.1 1.1-1.1h7.9c.6 0 1.1.5 1.1 1.1v39.6c-.1.7-.5 1.1-1.1 1.1zm-19.5 0h-7.9c-.6 0-1.1-.5-1.1-1.1v-39.6c0-.6.5-1.1 1.1-1.1h7.9c.6 0 1.1.5 1.1 1.1v39.6c0 .7-.5 1.1-1.1 1.1zm-19.5 0h-7.9c-.6 0-1.1-.5-1.1-1.1v-39.6c0-.6.5-1.1 1.1-1.1h7.9c.6 0 1.1.5 1.1 1.1v39.6c0 .7-.5 1.1-1.1 1.1z"/><linearGradient id="SVGID_10_" gradientUnits="userSpaceOnUse" x1="271.58" y1="334.898" x2="300.122" y2="398.777"><stop offset="0" stop-color="#f5586d"/><stop offset="1" stop-color="#f4875c"/></linearGradient><path fill="url(#SVGID_10_)" d="M277.7 358.4h10v2.7h-10z"/><linearGradient id="SVGID_11_" gradientUnits="userSpaceOnUse" x1="294.779" y1="324.532" x2="323.321" y2="388.411"><stop offset="0" stop-color="#f5586d"/><stop offset="1" stop-color="#f4875c"/></linearGradient><path fill="url(#SVGID_11_)" d="M297.2 339.7h10v2.7h-10z"/><linearGradient id="SVGID_12_" gradientUnits="userSpaceOnUse" x1="306.442" y1="319.321" x2="334.983" y2="383.201"><stop offset="0" stop-color="#f5586d"/><stop offset="1" stop-color="#f4875c"/></linearGradient><path fill="url(#SVGID_12_)" d="M316.7 352h10v2.7h-10z"/><path class="st2" d="M364.3 372.5h-7.9c-.6 0-1.1-.5-1.1-1.1v-39.6c0-.6.5-1.1 1.1-1.1h7.9c.6 0 1.1.5 1.1 1.1v39.6c0 .7-.5 1.1-1.1 1.1z"/><linearGradient id="SVGID_13_" gradientUnits="userSpaceOnUse" x1="338.731" y1="304.894" x2="367.273" y2="368.773"><stop offset="0" stop-color="#f5586d"/><stop offset="1" stop-color="#f4875c"/></linearGradient><path fill="url(#SVGID_13_)" d="M355.4 352h10v2.7h-10z"/><linearGradient id="SVGID_14_" gradientUnits="userSpaceOnUse" x1="318.947" y1="313.734" x2="347.489" y2="377.613"><stop offset="0" stop-color="#f5586d"/><stop offset="1" stop-color="#f4875c"/></linearGradient><path fill="url(#SVGID_14_)" d="M336.1 362.1h10v2.7h-10z"/><circle class="st2" cx="293.2" cy="153.1" r="33.1"/><path class="st19" d="M299.4 170c0-5.2-2.7-9.1-2.7-9.1l-3.6 7.7-3.6-7.7s-2.6 3.9-2.7 9.1c0 4.8 5.5 5.2 6.2 5.3 1-.1 6.5-.5 6.4-5.3z"/><path class="st20" d="M315.7 161.2c-3.1-2-5.3-7.3-4.9-13.7.4-6.4-1.2-15.2-7.9-18.1-4.2-1.8-6.2-.8-8 .1-1.1.6-2.3.6-3.4 0-1.8-1-3.9-1.9-8-.1-6.7 2.9-8.3 11.7-7.9 18.1.4 6.4-1.8 11.7-4.9 13.7-3.1 2-1.7 4 0 5.6 1.7 1.6 6.9-.3 11.1 2.6 4.2 2.9 6.1.4 6.7-2.7.7-3.1 4.7-28.1 4.7-28.1v-3.9 3.9s4 24.9 4.7 28.1c.7 3.1 2.5 5.6 6.7 2.7 4.2-2.9 9.4-1 11.1-2.6 1.7-1.6 3.1-3.6 0-5.6z"/><path class="st19" d="M293.2 168.7c-2.2 0-4.2-1.3-5.9-3.4-3-3.8-5-4.5-5-8.3v-19.3h21.9V157c0 3.9-2 4.6-5.1 8.4-1.7 2.1-3.8 3.3-5.9 3.3z"/><path class="st19" d="M282.3 146.1h-.5c-1.7 0-2.8 1.8-2.1 3.3l2.6 5.4s1.9-4.5 1.9-4.9c0-.4-1.9-3.8-1.9-3.8zm21.8 0h.5c1.7 0 2.8 1.8 2.1 3.3l-2.6 5.4s-1.9-4.5-1.9-4.9c0-.4 1.9-3.8 1.9-3.8z"/><path class="st20" d="M282.3 146.1s2.6-2.5 6.2-8c0 0 6.1 6.7 15.7 8 0 0 2.4-5.6 2.4-6.7 0-1.1-1.9-4.8-3.7-5.1-1.7-.3-18.8-1.7-21 0-2.3 1.7.4 11.8.4 11.8z"/><path class="st19" d="M379.9 140.5h-33.5c-3.4 0-6.1-2.7-6.1-6.1 0-3.4 2.7-6.1 6.1-6.1h33.5c3.4 0 6.1 2.7 6.1 6.1 0 3.4-2.7 6.1-6.1 6.1z"/><path class="st2" d="M383.6 155h-41c-1.3 0-2.4-1.1-2.4-2.4 0-1.3 1.1-2.4 2.4-2.4h41c1.3 0 2.4 1.1 2.4 2.4 0 1.3-1.1 2.4-2.4 2.4zm0 14.3h-41c-1.3 0-2.4-1.1-2.4-2.4 0-1.3 1.1-2.4 2.4-2.4h41c1.3 0 2.4 1.1 2.4 2.4 0 1.3-1.1 2.4-2.4 2.4zm0 14.5h-41c-1.3 0-2.4-1.1-2.4-2.4 0-1.3 1.1-2.4 2.4-2.4h41c1.3 0 2.4 1.1 2.4 2.4 0 1.3-1.1 2.4-2.4 2.4z"/><circle class="st2" cx="293.2" cy="241.9" r="33.1"/><path class="st19" d="M299.4 258.7c0-5.2-2.7-9.1-2.7-9.1l-3.6 7.7-3.6-7.7s-2.6 3.9-2.7 9.1c0 4.8 5.5 5.2 6.2 5.3 1 0 6.5-.5 6.4-5.3z"/><path class="st20" d="M315.7 250c-3.1-2-5.3-7.3-4.9-13.7.4-6.4-1.2-15.2-7.9-18.1-4.2-1.8-6.2-.8-8 .1-1.1.6-2.3.6-3.4 0-1.8-1-3.9-1.9-8-.1-6.7 2.9-8.3 11.7-7.9 18.1.4 6.4-1.8 11.7-4.9 13.7-3.1 2-1.7 4 0 5.6 1.7 1.6 6.9-.3 11.1 2.6 4.2 2.9 6.1.4 6.7-2.7.7-3.1 4.7-28.1 4.7-28.1v-3.9 3.9s4 24.9 4.7 28.1c.7 3.1 2.5 5.6 6.7 2.7 4.2-2.9 9.4-1 11.1-2.6 1.7-1.7 3.1-3.7 0-5.6z"/><path class="st19" d="M293.2 257.5c-2.2 0-4.2-1.3-5.9-3.4-3-3.8-5-4.5-5-8.3v-19.3h21.9v19.3c0 3.9-2 4.6-5.1 8.4-1.7 2.1-3.8 3.3-5.9 3.3z"/><path class="st19" d="M282.3 234.9h-.5c-1.7 0-2.8 1.8-2.1 3.3l2.6 5.4s1.9-4.5 1.9-4.9c0-.4-1.9-3.8-1.9-3.8zm21.8 0h.5c1.7 0 2.8 1.8 2.1 3.3l-2.6 5.4s-1.9-4.5-1.9-4.9c0-.4 1.9-3.8 1.9-3.8z"/><path class="st20" d="M282.3 234.9s2.6-2.5 6.2-8c0 0 6.1 6.7 15.7 8 0 0 2.4-5.6 2.4-6.7 0-1.1-1.9-4.8-3.7-5.1-1.7-.3-18.8-1.7-21 0-2.3 1.7.4 11.8.4 11.8z"/><path class="st19" d="M379.9 229.3h-33.5c-3.4 0-6.1-2.7-6.1-6.1 0-3.4 2.7-6.1 6.1-6.1h33.5c3.4 0 6.1 2.7 6.1 6.1 0 3.4-2.7 6.1-6.1 6.1z"/><path class="st2" d="M383.6 243.7h-41c-1.3 0-2.4-1.1-2.4-2.4 0-1.3 1.1-2.4 2.4-2.4h41c1.3 0 2.4 1.1 2.4 2.4 0 1.4-1.1 2.4-2.4 2.4zm0 14.4h-41c-1.3 0-2.4-1.1-2.4-2.4 0-1.3 1.1-2.4 2.4-2.4h41c1.3 0 2.4 1.1 2.4 2.4 0 1.3-1.1 2.4-2.4 2.4zm0 14.5h-41c-1.3 0-2.4-1.1-2.4-2.4 0-1.3 1.1-2.4 2.4-2.4h41c1.3 0 2.4 1.1 2.4 2.4 0 1.3-1.1 2.4-2.4 2.4z"/><path class="st1" d="M414.8 312.6c-20.3 14.7-39.4 28.7-45 19.6-1.1-1.8-1.7-3.8-1.7-5.9 0-10.2 12.5-23 28.7-35 14.4-10.8 23.2-18.2 30.5-17.1 2.6.4 4.9 1.7 7.3 4.4 5.4 5.8 1.4 18.7-19.8 34z"/><linearGradient id="SVGID_15_" gradientUnits="userSpaceOnUse" x1="646.337" y1="343.947" x2="69.336" y2="242.486"><stop offset="0" stop-color="#e88484"/><stop offset="1" stop-color="#f8c1c6"/></linearGradient><path d="M427.4 274.2c-6.1 7-11.5 10.4-18.2 16.6-11.9 11-20.2 17.2-31.6 27.4-4 3.6-7 6.3-9.4 8.1 0-10.2 12.5-23 28.7-35 14.4-10.8 23.1-18.2 30.5-17.1z" fill="url(#SVGID_15_)"/><path class="st1" d="M428.8 243.7c5.6 4.5 9 11.8.3 23.4-8 10.6-14.1 14.1-22.2 21.6-11.9 11-20.2 17.2-31.6 27.4-12 10.7-15.3 13.7-20.6 8.5-9.8-9.5 6.8-31.7 27.4-51.4 23.1-21.9 32.8-40.6 46.7-29.5z"/><g class="st10"><path class="st11" d="M370.8 310.8c-2.7-3.3-7.6-1.9-13.1 4s-3.9 9.2-.9 11.6c4.8 3.7 20.2-8.3 14-15.6z"/></g><g class="st10"><path class="st11" d="M386.3 324.7c2.6 3.2-2.8 9.6-10.7 10.4-3.3.3-4.9-5.2-.2-8s8.4-5.5 10.9-2.4z"/></g><path class="st1" d="M293 440.1L250.8 421l-15.2-6.9-11.5-12.7-6.1-117.6 10.8-19.4.6-1s.3.7.8 2.1c3.8 10 20.5 52.6 31.1 69.7 8.4 13.4 17.5 45.9 23.8 71.3 4.8 18.7 7.9 33.6 7.9 33.6zM436.8 176c8.2 11.1 8.8 21.5-15.5 43.3-33.9 30.4-40.4 49.8-56.1 47-15.7-2.8-8.2-25 12.2-46.9 12.4-13.4 22.3-27.3 35.1-42.3 6.6-7.8 19.1-8.2 24.3-1.1z"/><g class="st10"><path class="st11" d="M382.3 243.9c-2.7-3.3-12.5-6.1-21.6 8-9.2 14.1 5.5 17 10.8 12.8 5.3-4.3 16.5-14 10.8-20.8z"/></g><linearGradient id="SVGID_16_" gradientUnits="userSpaceOnUse" x1="215.242" y1="216.838" x2="215.246" y2="216.838"><stop offset="0" stop-color="#e88484"/><stop offset="1" stop-color="#f8c1c6"/></linearGradient><linearGradient id="SVGID_17_" gradientUnits="userSpaceOnUse" x1="230.214" y1="335.911" x2="285.148" y2="335.911"><stop offset="0" stop-color="#e88484"/><stop offset="1" stop-color="#f8c1c6"/></linearGradient><path d="M285.1 406.4c-10-36.5-25.9-57.7-37.6-75-8.5-12.6-11.5-17.3-14.6-31-2-9.1-1-19.1-2.8-34.9 3.8 10 20.5 52.6 31.1 69.7 8.5 13.4 17.6 45.9 23.9 71.2z" opacity=".49" fill="url(#SVGID_17_)"/></svg>