<svg version="1.1" id="Layer_1" xmlns="http://www.w3.org/2000/svg" x="0" y="0" viewBox="0 0 600 600" xml:space="preserve"><style>.st1{fill:#f9c2c5}.st2{fill:#ffd289}.st4{fill:#aaa1d9}</style><linearGradient id="SVGID_1_" gradientUnits="userSpaceOnUse" x1="111.205" y1="945.31" x2="366.892" y2="184.704"><stop offset="0" stop-color="#c8c0e9"/><stop offset="1" stop-color="#fafafa"/></linearGradient><path d="M527.1 363.2c-7.9 14.8-19.9 30.2-35.7 44.9-.9.8-1.8 1.7-2.8 2.5-3.3 2.9-6.7 5.9-10.3 8.7l-.1.1c-2.8 2.2-5.6 4.4-8.6 6.6-.1.1-.2.2-.3.2-3.2 2.3-6.5 4.6-9.9 6.9-5.1 3.4-10.4 6.7-15.9 10-2.9 1.7-5.8 3.3-8.8 4.9-12.1 6.6-25.1 12.7-39.2 18.2-3.7 1.4-7.5 2.9-11.3 4.2-1.2.4-2.5.9-3.7 1.3-.4.2-.9.3-1.3.4-.1 0-.2.1-.3.1-1.3.5-2.7.9-4.1 1.4-4.4 1.5-8.9 2.8-13.5 4.2-.3.1-.5.2-.8.2l-3.3.9c-5.6 1.6-11.4 3-17.3 4.4-1.4.3-2.8.7-4.2 1-1.2.3-2.4.5-3.7.8-19.5 4.3-38.3 7.1-56.2 8.7h-.4c-4.2.4-8.4.7-12.6.9-4.4.2-8.8.4-13.1.5-3.4.1-6.7.1-10 .1h-1.3c-12.2-.1-23.8-.9-34.8-2.4-.7-.1-1.4-.2-2-.3-3.9-.5-7.7-1.1-11.4-1.8-.3-.1-.7-.1-1-.2h-.3c-.1 0-.3 0-.4-.1-.2 0-.3-.1-.5-.1s-.3-.1-.4-.1c-.1 0-.3-.1-.4-.1-.4-.1-.7-.1-1.1-.2l-1.5-.3c-.7-.1-1.4-.3-2.1-.4-2.7-.6-5.4-1.2-8-1.9-3.7-.9-7.3-2-10.8-3.1-7.7-2.4-14.9-5.2-21.7-8.4-.2-.1-.3-.2-.5-.2-2.9-1.4-5.8-2.9-8.5-4.4-.3-.2-.7-.4-1-.6-41.5-23.6-60.2-62.6-45.9-110.7 2.3-7.9 5.6-16.1 9.8-24.5 2.8-5.7 6.1-11.4 9.8-17.3.3-.5.6-1 1-1.5l1.8-2.7c4.9-7.4 9.9-14.5 14.9-21.3.7-1 1.5-2 2.2-3 4.8-6.4 9.6-12.6 14.3-18.5 1.3-1.6 2.6-3.1 3.8-4.7 2.6-3.1 5.2-6.2 7.8-9.2.3-.3.6-.7.9-1 1.6-1.8 3.2-3.6 4.7-5.3.2-.3.5-.6.7-.8 1.4-1.5 2.7-3 4.1-4.5.5-.6 1-1.1 1.5-1.7l3.9-4.2 1.1-1.1c.1-.2.3-.3.4-.5.9-.9 1.8-1.8 2.7-2.8.6-.7 1.3-1.3 1.9-1.9 1.3-1.3 2.6-2.6 3.9-3.8 1.5-1.5 3-2.9 4.5-4.3 2.2-2.1 4.3-4.1 6.5-6.1 2.1-1.9 4.1-3.8 6.2-5.6 1.6-1.4 3.2-2.9 4.8-4.2.5-.4 1-.8 1.5-1.3.1-.1.2-.2.3-.2 6.5-5.6 12.9-10.8 19.2-15.6h.1c39.2-30.1 73.2-46 93.2-56.1 61.2-30.8 155.7-52.3 187.3-1.1 24 38.9 5.6 66.8-7.3 89.4-3.4 5.9-6.4 11.5-8.2 16.8-.7 2-1.2 4.1-1.5 6-.9 6.9 1 13.4 8 19.8.4.4.8.7 1.3 1.1 1.1.9 2.2 1.8 3.5 2.6 2.4 1.7 5.3 3.4 8.5 5.1 1.3.7 2.7 1.3 4.1 2 32.2 15.1 37.3 48.7 17.8 85.2z" fill="url(#SVGID_1_)"/><path class="st1" d="M485.4 268.5s-3.8-5-6.4-12.9c-2.6-7.9-4.2-12-4.4-14.2-.2-1.5 2.3-2.1 4.8 3s4.4 4.4 4.4 1.1c0-3.3-2.2-13.8-3.4-18-1.2-4.2-1.6-10.6.8-9.8 2.3.8 5.8 15.7 6.7 16.8.9 1.1.9-18.8 3.1-19.3s2.6 5.8 3 13.2c.1 1.5 1 1.4 2.5 1.4 2.5.1 3.2.7 5.2 3.5s.9 12.3.6 18.8c-.3 6.5-.3 16.5-.3 16.5h-16.6z"/><path class="st2" d="M461 346.9s20.3 10.7 35.7 7.9c16.7-3 15.6-46.6 7-86.9 0 0-14.9-2-19.8 1.3 0 0-1.3 51.8-2.2 53.2-.9 1.4-15-7.5-15-7.5l-5.7 32z"/><path d="M475 319.9c-7 12.4-9.6 29-9.6 29h-.1c-.1 0-.1 0-.2-.1-.3-.1-.8-.2-1.3-.4-.1 0-.2-.1-.4-.1-.3-.1-.7-.2-1.1-.3-.2-.1-.4-.1-.6-.2-.3-.1-.6-.2-.8-.3-.2-.1-.5-.2-.7-.2-.4-.1-.8-.3-1.3-.4-.3-.1-.5-.2-.8-.2l-1.8-.6c-.2 0-.3-.1-.5-.1-.1 0-.1 0-.2-.1-.6-.2-1.3-.4-2-.6-.1 0-.1 0-.2-.1-.3-.1-.5-.2-.8-.3-.2-.1-.3-.1-.5-.2-.5-.2-1-.3-1.5-.5-.3-.1-.6-.2-1-.3h-.1c-.2-.1-.5-.2-.7-.3-2.4-.8-4.6-1.7-6.2-2.4-.1 0-.2-.1-.3-.1-.1-.1-.2-.1-.3-.2-5.7-2.6-2.6 15.2-1.8 50.6.1 2.2.1 4.5.1 6.9.1 7.6.4 14.6.9 20.9.1.7.1 1.4.2 2 0 .5.1 1 .1 1.5.1.8.1 1.6.2 2.4.1 1 .2 1.9.3 2.8 0 .3.1.6.1.9.4 3.7.8 7.1 1.2 10.1.1.5.1 1 .2 1.5.1.8.2 1.5.3 2.3-2.9 1.7-5.8 3.3-8.8 4.9-12.1 6.6-25.1 12.7-39.2 18.2-3.7 1.4-7.5 2.9-11.3 4.2-1.2.4-2.5.9-3.7 1.3-.4.2-.9.3-1.3.4-.1 0-.2.1-.3.1-1.3.5-2.7.9-4.1 1.4-4.4 1.5-8.9 2.8-13.5 4.2v.2h-.8c-8.5-.1-11.9-.6-11.9-.6l.4-9.3.4-7.6.3-6.8 2.2-46.4-1.2-83.8-.2-16.5 10.6-3.7 11.8-4.1.8-.3 2.4-.8 2.8-.4h.1L409 294s2.1 0 5.3.1c8.2.3 23.7 1.4 31.1 6 10.1 6.1 29 19.4 29.6 19.8z" fill="#beb7e1"/><path class="st4" d="M361.5 477.9v.2h-.8c-8.5-.1-11.9-.6-11.9-.6l.4-9.3.4-7.6.3-6.8 2.2-46.4-1.2-83.8c7.9-11.9 13.4-19 12.6-14.9-.3 1.8-.5 4.1-.6 6.8-.4 16.7 3.7 48.9 1.1 91.5-1.7 27.1 6.9 53 10.9 66.8-4.3 1.3-8.8 2.7-13.4 4.1z"/><path class="st2" d="M414.3 294.1c-10 19.3-48 12.4-48 12.4s-3-1.5-5-3.1c-2.9-2.4-3.5-5.2 11.8-4.1.3 0 .6 0 .9.1 26.9 2.1 35-5.3 35-5.3s2.1-.2 5.3 0z"/><linearGradient id="SVGID_2_" gradientUnits="userSpaceOnUse" x1="218.55" y1="385.352" x2="218.55" y2="477.917"><stop offset="0" stop-color="#f5586d"/><stop offset="1" stop-color="#f4875c"/></linearGradient><path d="M273.3 412.7c0 .5-.8 7.4-2 17.1-.7 6-1.6 13-2.5 20.4-.3 2.5-.6 5-1 7.6-.1.6-.2 1.3-.2 1.9-1.7 13.7-3.4 27.2-4.5 35.2-4.4.2-8.8.4-13.1.5-3.4.1-6.7.1-10 .1h-1.3c-12.2-.1-23.8-.9-34.8-2.4-.7-.1-1.4-.2-2-.3-3.9-.5-7.7-1.1-11.4-1.8-.3-.1-.7-.1-1-.2h-.3c-.1 0-.3 0-.4-.1-.2 0-.3-.1-.5-.1s-.3-.1-.4-.1c-.1 0-.3-.1-.4-.1-.4-.1-.7-.1-1.1-.2l-1.5-.3c-.7-.1-1.4-.3-2.1-.4-2.7-.6-5.4-1.2-8-1.9-3.7-.9-7.3-2-10.8-3.1 1.8-6.7 5.1-12.5 12-26.4 1.5-3 3.1-6.4 5-10.2 2.6-5.5 3.7-11.5 3.7-17.4.1-11.4-3.5-22.7-6.4-29.8-2-4.8-3.6-7.8-3.6-7.8l6.9-50.4 1.1-8.3.4-2.8 21.3-2.1 11.7-1.2 23.3-2.3 17.4-1.7 11.2 21.3s.6 6.9 1.4 16.3c.7 8.5 1.6 19 2.4 28.4.7 11.9 1.5 21.9 1.5 22.6z" fill="url(#SVGID_2_)"/><path d="M237.9 436.9c-.7.5-28.3 19.6-40.2 23.4-8.4 2.6-14.2 18.1-15 29.2-2.7-.6-5.4-1.2-8-1.9-3.7-.9-7.3-2-10.8-3.1 1.8-6.7 5.1-12.5 12-26.4 1.5-3 3.1-6.4 5-10.2 2.6-5.5 3.7-11.5 3.7-17.4.1-11.4-3.5-22.7-6.4-29.8 0-.3 2.1-15.6 5.1-21.7 1.1-2.1 2.3-3.1 3.5-1.9 4.7 4.4 12.3 33 10.3 51.1-.1.9-.2 1.8-.4 2.7-3.1 17.4 39.8 6.4 41.2 6z" fill="#f83f61"/><path class="st2" d="M248.8 258.3l-3.3 10.1s-1.4 3.9-4.6 9.4c-5.6 9.5-16.7 23.8-36.1 31.9-30.7 12.8-39.1 4.2-57.3 11.9-18.2 7.7-9.6 39.6-48.7 39.9-32.3.2-44.5-22.9-33.4-40.6 2.4-3.8 5.8-7.3 10.3-10.3 13-8.6 20.3-14.8 25.1-21.1 4.6-6.2 6.8-12.4 9.2-21.1 4.9-17.5 22.8-29.8 45.7-29.1 22.9.7 24.9 4.2 48-6.1 4.7-2.1 8.9-3.4 12.9-4.2 15.6-3 25.6 3.2 30.5 10.3 6.1 8.9 1.7 19 1.7 19z"/><linearGradient id="SVGID_3_" gradientUnits="userSpaceOnUse" x1="151.288" y1="303.176" x2="151.288" y2="386.1"><stop offset="0" stop-color="#f5586d"/><stop offset="1" stop-color="#f4875c"/></linearGradient><path d="M240.9 277.8c-5.6 9.5-16.7 23.8-36.1 31.9-30.7 12.8-39.1 4.2-57.3 11.9-18.2 7.7-9.6 39.6-48.7 39.9-32.3.2-44.5-22.9-33.4-40.6 5.3 14.4 35.7 25.3 56.6-.7 24.6-30.5 45.4-9.8 61.6-29.3 16.2-19.5 13.2-29.5 25.1-34.4 11.9-5 12 .2 26.4 0 4.9-.1 6.7 8.9 5.8 21.3z" opacity=".14" fill="url(#SVGID_3_)"/><path class="st1" d="M440 187.5s-3.3-7.4-3.2-14.1c.1-6.7.6-14.5.8-17.8.2-3.3 3.2-.3 3.8 3.7.6 4 1.6 8.5 2.5 7.8.9-.7 3.3-9.7 4-11.9.7-2.2-.1-10.9 0-13.3.1-2.3 2.7-2.9 3.5-.8 0 0-.3-4 1.6-4.2 1.9-.2 3.1 3.8 3.1 3.8s-.2-2 1.7-1.4c2.2.6 2.1 10.3 2.4 10.8.3.5 1-6.8 2.8-6.6 1.9.3 3.2 27.8-8.4 46.5l-6.8 2.3-7.8-4.8z"/><linearGradient id="SVGID_4_" gradientUnits="userSpaceOnUse" x1="249.963" y1="471.821" x2="361.498" y2="471.821"><stop offset="0" stop-color="#a15bb1"/><stop offset="1" stop-color="#6c388d"/></linearGradient><path d="M361.5 478.1h-.8l-3.3.9c-5.6 1.6-11.4 3-17.3 4.4-1.4.3-2.8.7-4.2 1-1.2.3-2.4.5-3.7.8-19.5 4.3-38.3 7.1-56.2 8.7h-.4c-4.2.4-8.4.7-12.6.9-4.4.2-8.8.4-13.1.5 2.4-20.5 4.7-38.4 5.3-43.1.1-.8.2-1.2.2-1.2l.8-.4h1.4c.5 0 1 0 1.6-.1h.7c.9 0 1.9-.1 2.9-.1h3.8c.7 0 1.4-.1 2.1-.1h1.2c.5 0 1.1 0 1.6-.1h3.9c.5 0 1 0 1.6-.1.5 0 1 0 1.5-.1h2.5c.7 0 1.4-.1 2.2-.1h.7c5.2-.2 10.6-.4 15.8-.5h1c1.5-.1 3-.1 4.4-.1h1.4c.9 0 1.8-.1 2.7-.1.6 0 1.1 0 1.7-.1 1 0 1.9-.1 2.9-.1h1.2c.6 0 1.2 0 1.8-.1h13.7c.7.1 6.8 1.3 14.2 2.9l3 1.5c.2.1.5.2.7.4.5.2.9.5 1.3.7.4.2.7.4 1.1.6.2.1.4.2.5.3.5.2.9.5 1.4.7.4.2.7.4 1 .5.9.5 1.8.9 2.5 1.3.2.1.3.2.5.3 1 .5 1.7.9 2.3 1.2.2.1.4.2.5.3l.6.3v.3c0 .2 0 .6.1 1.1 0 .3 0 .7.1 1.2v.4c0 .6.1 1.3.1 2.1v1.4c0 .8.1 1.7.1 2.6v.9c0 .7.1 1.5.1 2.3.1 2 .2 4.2.3 6.5.6-.8.6-.7.6-.6z" fill="url(#SVGID_4_)"/><linearGradient id="SVGID_5_" gradientUnits="userSpaceOnUse" x1="307.547" y1="444.26" x2="309.174" y2="486.565"><stop offset="0" stop-color="#7a4385"/><stop offset="1" stop-color="#402154"/></linearGradient><path d="M361.2 471.4c-1.2-.1-2.6-.5-4.1-1-13.7-5.3-37.9-4.4-59.7-3.1-17.9 1-36.2-10.7-42.1-15 .1-.8.2-1.2.2-1.2l.8-.4c14-.5 72.8-2.7 74.4-2.4.7.1 6.8 1.3 14.2 2.9 8.2 4.1 15.6 8 15.6 8s.3 4.7.7 12.2z" fill="url(#SVGID_5_)"/><linearGradient id="SVGID_6_" gradientUnits="userSpaceOnUse" x1="305.662" y1="143.544" x2="323.458" y2="606.244"><stop offset="0" stop-color="#6aebd5"/><stop offset="1" stop-color="#2f95ae"/></linearGradient><path d="M456.6 189.2s-6.5 80.4-12.7 91.9c-6.2 11.5-54.3 12.3-69.8 18.2-15.5 5.9-14.1 38.6-13.5 84 .6 45.4 4.5 76.4 3.6 77-.9.6-29.7-.2-65.1.7-1.3 0-2.5.1-3.7.1-32.3.1-39.8-10-39.8-10 2.2-24.6 5.6-98.9-8.1-115-2.2-2.6-5-4.3-8.3-5.3-17.4-5.4-47.6 7.2-63.8 2.2-19.3-5.9-9.3-19.3-9.3-19.3 26.4-23 49.6-22.8 72.1-26 18.5-2.6 43.6-6.1 43.6-6.1l46.9.7s4.6-4.4 18-8.4 60.9-11.2 71.2-14.7c10.3-3.4 21.1-72.4 21.1-72.4l17.6 2.4z" fill="url(#SVGID_6_)"/><linearGradient id="SVGID_7_" gradientUnits="userSpaceOnUse" x1="148.293" y1="461.772" x2="303.113" y2="375.968"><stop offset="0" stop-color="#6aebd5"/><stop offset="1" stop-color="#2f95ae"/></linearGradient><path d="M295.2 461.1c-32.3.1-39.8-10-39.8-10 2.2-24.6 5.6-98.9-8.1-115-2.2-2.6-5-4.3-8.3-5.3.7.1 24.7 5 26.6 30.7 2.1 26.1-3 91.1 29.6 99.6z" fill="url(#SVGID_7_)"/><path class="st1" d="M257.2 362.8h5.7s5.4.1 9-2.9c3.6-3 7.9-13.5 9.8-13.6 1.9-.2 2.2 4.3.8 8.5-1.4 4.3-5.2 11.2-3.3 12.2 1.8 1 11.7 5.4 12.5 6.7.8 1.3-.7 4.3-2.3 5.1-1.6.8.4 2.8-3.1 5.7-3.5 3-1.5 3.9-5.4 5.3-3.9 1.4-3.4 2.6-7.3 1.2s-22-13.9-22-13.9l5.6-14.3z"/><linearGradient id="SVGID_8_" gradientUnits="userSpaceOnUse" x1="190.149" y1="390.144" x2="190.149" y2="489.937"><stop offset="0" stop-color="#f5586d"/><stop offset="1" stop-color="#f4875c"/></linearGradient><path d="M182.9 331.3s-28.2 2.8-35.7 51.4c-7.5 48.6-5.1 69.8-1.4 73.6 3.7 3.7 14.5 5.6 28 2.3s63.2-21.2 64.1-21.7c.9-.5-2.8-15.6-2.8-15.6s-52.9 9.4-61.1 11.2c-2.8.6-1.4-4.3-.2-11.1 2-11.7 6.4-30 9.1-40.9 4.1-17.2 0-49.2 0-49.2z" fill="url(#SVGID_8_)"/><path class="st1" d="M240 291.9l-.6 25.2-.3 13.6s-2.1 4.3-11.7 5.7c-9.6 1.4-23.2-7.3-23.2-7.3 1.9-7.9 3.5-17.9 4.6-26.9.7-5.1 1.2-9.8 1.6-13.6.5-5.1.8-8.5.8-8.5l15.6 6.3 13.2 5.5z"/><linearGradient id="SVGID_9_" gradientUnits="userSpaceOnUse" x1="228.555" y1="176.649" x2="222.492" y2="354.785"><stop offset="0" stop-color="#e88484"/><stop offset=".09" stop-color="#e9898a"/><stop offset="1" stop-color="#f8c1c6"/></linearGradient><path d="M240 291.9l-.6 25.2c-16.9 2-27.1-9.7-30.6-14.8.7-5.1 1.2-9.8 1.6-13.6l16.4-2.2 13.2 5.4z" fill="url(#SVGID_9_)"/><path class="st1" d="M235.1 421.3s7.5-4.3 10.4-4.9c3-.6 7.8-.6 9.2.8 1.4 1.4 3.4-.2 3.6 4.1.2 4.3 1 11.6-1.7 13-2.7 1.4-18.7 2.6-18.7 2.6l-2.8-15.6z"/><linearGradient id="SVGID_10_" gradientUnits="userSpaceOnUse" x1="360.58" y1="235.283" x2="422.412" y2="235.283"><stop offset="0" stop-color="#a15bb1"/><stop offset="1" stop-color="#6c388d"/></linearGradient><path d="M361.6 221c2.1 4.8 6.9 7.2 6.9 7.2l3.2 13 .2.4c1.5 4 14 33.9 35.1 24.4 22.5-10.1 9.9-27.6 13.9-35.3 1.5-2.9 1.8-6.2 1-9.3-1.4-5.1-5.9-9.7-13.2-10.9-7.9-1.3-6.1 2.2-19.1-4.6-10.5-5.5-21-4.1-26.1 1.9-1.2 1.4-2 3-2.6 4.9-.7 3.4-.3 6.1.7 8.3z" fill="url(#SVGID_10_)"/><path class="st1" d="M374 299.3s-.7 1.6 15.9 0c16.5-1.6 19.2-5.3 19.2-5.3-5.6-3.8-5.8-19.3-5.7-26.9 0-5.5.7-9.8.7-9.8s-12.3-10.3-20.3-9.4c-1.9.2-3.6 1.1-4.9 3-1.4 2.1-2.1 5.5-1.9 10.5.3 8.1-.2 13.8-1.2 17.8-2.3 9.7-1.8 20.1-1.8 20.1z"/><linearGradient id="SVGID_11_" gradientUnits="userSpaceOnUse" x1="12395.219" y1="-204.206" x2="12400.546" y2="-166.189" gradientTransform="scale(-1 1) rotate(4.33 3.41 -169068.708)"><stop offset="0" stop-color="#e88484"/><stop offset=".09" stop-color="#e9898a"/><stop offset="1" stop-color="#f8c1c6"/></linearGradient><path d="M374.4 284.8c11.2 1.7 23.1-8.1 27.5-12.1 0-5.5.7-9.8.7-9.8s-12.3-10.3-20.3-9.4c-1.4.8-3.1 1.8-4.9 3-1.4 2.1-2.1 5.5-1.9 10.5.4 8.2-.1 13.8-1.1 17.8z" fill="url(#SVGID_11_)"/><linearGradient id="SVGID_12_" gradientUnits="userSpaceOnUse" x1="11300.015" y1="154.121" x2="11290.446" y2="189.47" gradientTransform="scale(-1 1) rotate(1.542 3604.299 -433692.953)"><stop offset="0" stop-color="#7a4385"/><stop offset="1" stop-color="#402154"/></linearGradient><path d="M361.6 221c2.1 4.8 6.9 7.2 6.9 7.2l3.2 13 .2.4c13.7-1.4 26.6-3.7 26.6-3.7s5.6-11.3-10.8-11c-13.7.3-21.6-.4-26.1-5.9z" fill="url(#SVGID_12_)"/><path class="st1" d="M368.5 228.3s-6.4 41.8 8.7 46.7c13.5 4.4 25.7-12.3 26.9-13.3 1.2-.9 3.3-2.5 4.6-5.6 1.3-3.1 1.9-7.4-.2-8.5-2.2-1.2-5.6-.8-7 1.3-1.3 2-3.3 1.3-3.5-4.5-.2-5.8 2.8-10.1-3-10.6s-22-1.8-26.5-5.5z"/><linearGradient id="SVGID_13_" gradientUnits="userSpaceOnUse" x1="11252.223" y1="162.76" x2="11310.198" y2="162.76" gradientTransform="scale(-1 1) rotate(1.542 3604.299 -433692.953)"><stop offset="0" stop-color="#c8c0e9"/><stop offset="1" stop-color="#fafafa"/></linearGradient><path d="M363.6 208.1c3.1-1.9 8.5-2.8 17.8.9 19.1 7.6 31.4-1.1 40.6 12.6-1.4-5.1-5.9-9.7-13.2-10.9-7.9-1.3-6.1 2.2-19.1-4.6-10.6-5.5-21.1-4.1-26.1 2z" opacity=".29" fill="url(#SVGID_13_)"/><linearGradient id="SVGID_14_" gradientUnits="userSpaceOnUse" x1="204.509" y1="147.641" x2="222.229" y2="608.37"><stop offset="0" stop-color="#6aebd5"/><stop offset="1" stop-color="#2f95ae"/></linearGradient><path d="M165.9 313.7s-10.6 9.2 11.3 25.8 75.2 39.6 75.2 39.6l8.1-16.2s-31.6-26-40.2-31.6c-8.6-5.6-15.2-13.5-22.8-16.3-7.7-2.8-31.6-1.3-31.6-1.3z" fill="url(#SVGID_14_)"/><linearGradient id="SVGID_15_" gradientUnits="userSpaceOnUse" x1="265.647" y1="217.734" x2="340.18" y2="217.734"><stop offset="0" stop-color="#7a4385"/><stop offset="1" stop-color="#402154"/></linearGradient><path d="M304.9 249.2s-10.5 3.9-16.9 2.4c-6.4-1.6-11.8-7.2-12.5-12-1.2-8.3-5.5-6.3-8.6-13.3-4.2-9.4 3.6-14.6 2.7-27.5-.9-12.9 14-19.9 21.3-18.5 7.3 1.4 11.5 3 18.9 1.5 8.3-1.7 20.5.9 24.2 10.4 3.7 9.5 1 15.4 4.5 23.5 2.9 6.7 1.7 21.1-3.1 24.4-12.2 8.1-9.6 15.5-23.6 15.2-17.8-.4-6.9-6.1-6.9-6.1z" fill="url(#SVGID_15_)"/><path class="st1" d="M328.5 282.3c-10.3 7.4-19.6 8.4-22.7 8.6h-1.1c-3.3-.1-13.6-1.1-24-8.6 0 0 7.3-8.9 9.4-22.7.4-2.8.7-5.8.6-9-.5-17.1 12.4-4.5 14.8-2.1 2.9-3.3 13.6-14.2 13.1 2.1-.1 3.6.2 7 .8 10.1 2.2 13.2 9.1 21.6 9.1 21.6z"/><linearGradient id="SVGID_16_" gradientUnits="userSpaceOnUse" x1="308.263" y1="154.164" x2="302.201" y2="332.3"><stop offset="0" stop-color="#e88484"/><stop offset=".09" stop-color="#e9898a"/><stop offset="1" stop-color="#f8c1c6"/></linearGradient><path d="M319.3 260.8c-13.1 13.9-25.3 3.1-29.3-1.1.4-2.8.7-5.8.6-9-.5-17.1 12.4-4.5 14.8-2.1 2.9-3.3 13.6-14.2 13.1 2.1-.1 3.6.2 6.9.8 10.1z" fill="url(#SVGID_16_)"/><path class="st1" d="M206.3 278.8c-4.3-2.4-8.2 6.8-3.7 11.9 4.4 5.1 5.6 1.2 10.5 7.9 4.9 6.8 17 12.4 28 9.1 11-3.3 8.4-47.5 3.5-54.2 0 0-2.8 4.5-12.8 3.4-10-1.2-18.4-.2-18.2 7.7.2 7.9-1 17.7-7.3 14.2zm77.2-63.8v22.3c0 3 .9 5.9 2.6 8.3l6.4 9.4c2.8 4 7.3 6.4 12.2 6.4h.2c4.8 0 9.3-2.3 12.1-6.3l6.6-9.5c1.7-2.5 2.7-5.4 2.7-8.5V215c0-11.8-9.6-21.4-21.4-21.4-11.8 0-21.4 9.6-21.4 21.4z"/><linearGradient id="SVGID_17_" gradientUnits="userSpaceOnUse" x1="270.51" y1="201.646" x2="331.037" y2="201.646"><stop offset="0" stop-color="#7a4385"/><stop offset="1" stop-color="#402154"/></linearGradient><path d="M283.5 218.5s.2-1.3 1.7-8.3c.9-4.3 4.6-11.4 13-8.5 8.4 3 12 1.9 15.9.8 3.9-1.1 12.3 4.8 12.3 13.4 0 8.5 9.5-15.1 1.6-20.4-7.9-5.3-26.6-13.7-33.7-9.5-7.1 4.2-24.1 16.6-23.7 18.7.4 1.9 12.9 13.8 12.9 13.8z" fill="url(#SVGID_17_)"/><path d="M216.6 229.1c-11 5.8-20.1 16.7-37.7 20.3-28.9 5.9-42-7.4-61.2 22.1-7 10.8-12.4 15.6-16.9 18.1 4.6-6.2 6.8-12.4 9.2-21.1 4.9-17.5 22.8-29.8 45.7-29.1 22.9.7 24.9 4.2 48-6.1 4.7-2.1 9-3.5 12.9-4.2z" opacity=".29" fill="#fff"/><path class="st4" d="M443.6 443.2c-2.9 1.7-5.8 3.3-8.8 4.9 2.6-8.5 5.1-18.5 6.3-28.6.1.7.1 1.4.2 2 0 .5.1 1 .1 1.5.1.8.1 1.6.2 2.4.1 1 .2 1.9.3 2.8 0 .3.1.6.1.9.4 3.7.8 7.1 1.2 10.1.1.5.1 1 .2 1.5 0 1 .1 1.7.2 2.5zm-3.5-51.5c-8-32.2-15.7-54.5-6.9-60.4 8.9-5.8 32.1 17.7 32.1 17.7s-17.4-5.2-23.4-8c-5.6-2.6-2.5 15.3-1.8 50.7z"/><path class="st2" d="M389.9 158.3c-5 1-6.4 2.4-7.3 7.3-.1.5-.8.5-.9 0-1-5-2.4-6.4-7.3-7.3-.5-.1-.5-.8 0-.9 5-1 6.4-2.4 7.3-7.3.1-.5.8-.5.9 0 1 5 2.4 6.4 7.3 7.3.5.1.5.8 0 .9zm-72.1-24.7c-5 1-6.4 2.4-7.3 7.3-.1.5-.8.5-.9 0-1-5-2.4-6.4-7.3-7.3-.5-.1-.5-.8 0-.9 5-1 6.4-2.4 7.3-7.3.1-.5.8-.5.9 0 1 5 2.4 6.4 7.3 7.3.4.1.4.8 0 .9zm-68.9 53.7c-5 1-6.4 2.4-7.3 7.3-.1.5-.8.5-.9 0-1-5-2.4-6.4-7.3-7.3-.5-.1-.5-.8 0-.9 5-1 6.4-2.4 7.3-7.3.1-.5.8-.5.9 0 1 5 2.4 6.4 7.3 7.3.5.1.5.8 0 .9z"/></svg>